<?xml version="1.0" standalone="no"?>
<!DOCTYPE svg PUBLIC "-//W3C//DTD SVG 1.1//EN" "http://www.w3.org/Graphics/SVG/1.1/DTD/svg11.dtd" >
<svg xmlns="http://www.w3.org/2000/svg">
<metadata>
This is a custom SVG webfont generated by Font Squirrel.
Copyright   : 251 2001 Letterhead Fonts Designed by Ken McTague
</metadata>
<defs>
<font id="LHFBostonTruckstyleRegular" horiz-adv-x="1024" >
<font-face units-per-em="2048" ascent="1638" descent="-410" />
<missing-glyph horiz-adv-x="1077" />
<glyph unicode=" "  horiz-adv-x="1077" />
<glyph unicode="&#x09;" horiz-adv-x="1077" />
<glyph unicode="&#xa0;" horiz-adv-x="1077" />
<glyph unicode="!" horiz-adv-x="665" d="M102 227q0 82 37 136.5t91.5 82t117.5 27.5q66 0 120 -27.5t91 -82t37 -136.5t-37 -136t-91 -81.5t-120 -27.5q-63 0 -117.5 27.5t-91.5 81.5t-37 136zM676 1827q-37 -57 -45 -110.5l-17 -119.5l-59 -524q-4 -39 5 -67.5t28.5 -52t46.5 -44t55 -39.5q-61 -37 -98 -68.5 t-57.5 -68.5t-28.5 -83t-14 -113h-293q-6 68 -15.5 114.5t-29 83.5t-56.5 69t-98 66q16 10 33.5 22.5t34.5 29.5q51 51 58 105t-1 124l-32 280q-15 138 -36 279q-6 39 -16 63.5t-35 53.5h670z" />
<glyph unicode="&#x22;" horiz-adv-x="864" d="M174 1257q-72 -10 -119 13.5t-70.5 65.5t-23.5 94q0 51 22.5 97t69.5 76.5t115 30.5q82 0 137 -43t78 -108.5t11.5 -145.5t-60.5 -151.5t-138.5 -128t-222.5 -74.5q20 16 52 53t64 79t56.5 80.5t28.5 61.5zM657 1257q-72 -10 -118.5 13.5t-70.5 65.5t-24 94q0 51 22.5 97 t70 76.5t114.5 30.5q82 0 137.5 -43t78 -108.5t11 -145.5t-60.5 -151.5t-138 -128t-222 -74.5q20 16 52 53t63.5 79t56 80.5t28.5 61.5z" />
<glyph unicode="#" horiz-adv-x="4569" d="M252 651v58q-2 33 -8 63.5t-35 50.5q-23 27 -44.5 43.5t-53.5 38.5l-25 17l31 22q35 27 56.5 47.5t37.5 46.5q-4 -6 2 0t15.5 27.5t16.5 58.5t7 95v194q0 16 -1 29.5t-1 23.5q2 131 -35 204t-83 109t-85 43l-39 7h905l674 -1233v817v49q0 102 -26.5 171t-63.5 108 t-75 58.5t-62.5 24.5t-26.5 5h805q-2 0 -22.5 -3t-53 -22.5t-63.5 -60.5t-53.5 -116t-22.5 -189v-25v-205q0 -35 -1 -53t1 -33.5t10.5 -33t26.5 -48.5q16 -27 38.5 -49t57.5 -47l33 -22l-27 -17q-20 -12 -36 -24l-31 -27q-35 -29 -53.5 -62.5t-18.5 -97.5v-512 q0 -45 18.5 -78.5t42 -57t41.5 -35.5l19 -11h-748l-712 1311v-703q0 -41 2 -129t3 -185t0 -185.5t-9 -128.5q-27 -137 -92.5 -257t-202.5 -212q-61 -41 -127 -69t-134.5 -38t-137 0t-136 45t-124 93.5t-80 125t-4 132t105.5 114.5q47 27 90 17.5t64.5 -25t25.5 -17.5 l-10 -13l-13 -17q-35 -49 -29.5 -98.5t37 -88.5t82 -60.5t105.5 -15t108.5 45.5t90.5 122q4 8 6 14.5t6 14.5q14 43 23.5 110.5t14.5 147.5t6 167t0 167t-2 148.5t-1 113.5v4zM3725 662q-31 -20 -50 -35t-32.5 -31t-21.5 -40t-19 -62q-35 -137 -100 -234.5t-158.5 -159 t-211 -90t-255.5 -28.5q-129 0 -245.5 28.5t-212 89t-163 155.5t-97.5 228q-10 41 -18.5 65.5t-23 42t-35.5 33.5l-54 38q33 23 55 43t38.5 44.5t27 53t20.5 65.5q31 125 101.5 213t166.5 143.5t211 81t234 25.5q102 0 201.5 -18.5t186.5 -60.5t159.5 -108.5t119.5 -162.5 q23 -49 31 -89t24.5 -87t49 -80.5t71.5 -62.5zM3090 735q16 35 21.5 70t-0.5 78q-16 127 -82 193.5t-143 66.5q-78 0 -146.5 -66.5t-91.5 -204.5q-8 -45 -5 -73.5t15.5 -51t37 -42t59.5 -43.5q-31 -18 -53.5 -34t-37 -34.5t-19.5 -43t-1 -61.5q6 -55 18.5 -111t38 -100.5 t68.5 -73t110 -28.5q66 0 109 26.5t68.5 68.5t40 95.5t20.5 106.5q4 27 5 44.5t-3 30.5t-14 25.5t-29 30.5q-16 16 -35.5 30.5t-40.5 27.5q23 16 50.5 29t39.5 44zM3678 207q0 74 33 122t82 72.5t106 24.5t106.5 -24.5t82.5 -72.5t33 -122t-33 -122t-82 -72.5t-107 -24.5 q-57 0 -106 24.5t-82 72.5t-33 122z" />
<glyph unicode="$" horiz-adv-x="581" d="M309 514q-23 -12 -48 -22.5t-52 -16.5t-53.5 -4t-49.5 16q-6 12 0 33q6 6 19 12l6 3l-6 6q-16 12 -39 15t-49 -9q-29 -12 -35 -35t10 -45l15 -14q35 -18 75 -23q35 -4 91.5 0t117.5 21q2 -23 2 -43v-39q0 -63 -6 -124t-22 -108q-2 -4 -4 -11t-7 -11l-2 2h-2q-23 16 -49 9 t-43 -30q-16 -25 -9 -51.5t30 -42.5q37 -20 69 -2q23 12 39.5 48t24.5 58q10 33 15 69t9 77q6 98 0 211q47 16 87 37.5t69 52.5q23 27 34 60.5t9 69.5t-16.5 67.5t-40.5 56.5q-14 29 -15 98v6l-8 -4q-12 -4 -24.5 -6t-24.5 -2q-39 4 -76 18.5t-69 34.5q-6 35 -10.5 73 t-8.5 83q-4 35 -4 63v60q45 25 73.5 27t44 -7.5t19.5 -26t0 -28.5q-2 -6 -16 -12l-8 -4l6 -4q33 -29 88 -7q29 14 36 35t-12 43q0 2 -4 6q-55 31 -114 31q-57 0 -115 -16v2q0 63 6 123.5t23 107.5q2 4 5 11.5t7 11.5v-2h2q23 -16 50.5 -9t41.5 29q16 25 9 51.5t-29 42.5 q-35 20 -68 2q-23 -12 -40 -48t-25 -58q-10 -33 -15.5 -69t-9.5 -77q-2 -33 -3 -66.5t1 -68.5q-47 -20 -80 -47.5t-43 -52.5q-10 -18 -20 -45q-14 -39 -6 -86t34 -74l21 -20q10 -10 12 -29q4 -16 3 -30.5t-1 -30.5l-2 -9h6q18 6 33.5 8.5t28.5 2.5q31 0 69 -21 q6 -33 10.5 -62.5l9.5 -63.5l11 -77q6 -43 12 -100zM307 791q6 -6 13.5 -12.5t13.5 -14.5q51 -55 59 -112.5t-31 -98.5q-2 -4 -14 -12q-2 16 -3 30.5t-5 30.5q0 10 -2 16q-10 53 -17 96zM238 983q-29 27 -46.5 56.5t-19.5 62.5q0 27 12.5 52.5t28.5 43.5q4 -70 12 -139 q4 -20 6.5 -39t6.5 -37z" />
<glyph unicode="%" horiz-adv-x="2078" d="M913 1042q-4 -4 -12 -14t-18 -53q-29 -145 -140.5 -227t-296.5 -82q-180 0 -289.5 80.5t-142.5 222.5q-6 31 -13 47t-36 39q-12 8 -20 14l-11 6l15 10q18 14 33 31q16 23 23 39t15 45q35 131 144.5 205t284.5 74q184 0 296.5 -84t139.5 -234q14 -27 24.5 -43t34.5 -33 l14 -10l-10 -6q-23 -15 -35 -27zM567 1118q-8 -12 -4 -9t11.5 16.5t12.5 35t1 47.5q-25 154 -139 154q-115 0 -140 -160q-4 -18 -6 -29.5t0 -19.5t7 -17.5t18 -23.5q6 -6 13 -12l17 -15l15 -10l-11 -6q-18 -10 -34 -27l-19 -18q-6 -6 -7 -12t0 -15.5t3 -25.5 q10 -96 44 -142.5t100 -46.5q125 0 143 181l3 27q1 9 -1 16.5t-9 15.5t-20 20q-16 16 -35 27l-10 6l15 10q10 10 18 16.5t14 16.5zM2044 502q-4 -4 -12.5 -14.5t-18.5 -53.5q-29 -145 -140.5 -226t-295.5 -81q-180 0 -290.5 80t-141.5 221q-6 33 -13.5 48.5t-35.5 37.5 q-8 8 -21 14l-10 9l14 10q18 14 33 31q16 20 23.5 36.5t15.5 44.5q35 133 144.5 207t283.5 74q184 0 297 -84t139 -233q14 -29 24.5 -44.5t35.5 -31.5l14 -10l-12 -9q-10 -6 -17.5 -12t-15.5 -14zM1698 578q-8 -10 -4 -7.5t11 16t12 35t1 48.5q-25 154 -139 153 q-115 0 -139 -159q-4 -18 -6 -29.5t0 -20t7 -17.5t17 -24q14 -16 31 -26l14 -10l-12 -9q-10 -6 -17.5 -11t-15.5 -13q-12 -12 -18 -19.5t-7 -13.5t0 -14l3 -25q10 -96 43.5 -142t99.5 -46q123 0 143 180q2 16 3 25.5t-2 16.5t-9 15t-18 21q-16 16 -35 26l-10 9l14 10 q19 15 33 31zM922 557q-4 -4 -5.5 -9t-5.5 -9l-115 -200q-56 -95 -122 -175q-31 -39 -63.5 -73t-67.5 -60q-12 -10 -29.5 -21.5t-38 -22t-40 -16.5t-36.5 -4q-23 4 -40 17.5t-27 35.5q-14 33 -1 65t46 46t65.5 1t44.5 -46l2 -2v-2q6 2 14.5 6t14.5 8q53 39 102.5 97.5 t94.5 123.5l49.5 72t50.5 82l66 121l48 93q22 42 39 81l39 84l49 103l68 141q49 100 106.5 186t117.5 162q33 39 65.5 72.5t67.5 60.5l29 20q17 12 37 22.5t39.5 16.5t35.5 4q51 -6 70 -53q14 -33 0.5 -64.5t-45.5 -45.5q-35 -14 -67 -1t-46 46v2v2q-8 -2 -16.5 -6.5 t-12.5 -8.5q-53 -39 -102 -97t-94 -124l-55 -79q-28 -42 -56 -91q-41 -70 -70.5 -125t-58.5 -115l-63 -137z" />
<glyph unicode="&#x26;" horiz-adv-x="2615" d="M891 432q-98 -14 -196.5 -22.5t-196.5 -12.5q39 8 61 49q20 37 19 74l-12 40l-9 30q-16 39 -49 74q-39 35 -80 38q-14 0 -20 -2l-24 -76l-22 -79q-8 -18 -8 -33q-4 -41 19 -72q20 -29 55 -41q-76 6 -150.5 19.5t-152.5 32.5q43 16 53 26q29 20 82 160q-14 -4 -35 -4 q-18 0 -41 6q-61 14 -105 57t-69 109q-10 18 -6 43q70 -63 125 -78q35 -10 82 -10q43 2 66.5 4t31.5 2l17 45q8 23 18 45q25 68 25 100q0 4 -1 6.5t-1 6.5q-10 37 -39 57q-8 6 -14.5 10t-16.5 8q168 -18 336 -12q20 -59 39 -121l37 -120q10 -23 34 -37q8 -4 21 -9l31 -10 q-43 -31 -39 -61q16 -55 31.5 -95t31.5 -65q41 -63 84 -76q12 8 19 11q43 35 45 118v125q0 25 -19 41q-6 6 -39 23q33 27 43 49v-2q14 20 17 69q-2 -6 -2 66q0 139 -84 131l157 30l158 31l234 -380v286q0 57 -17 88q-23 43 -72 37q72 16 141 29l140 24q-2 -2 -8 -2 q-8 -4 -25 -16q-39 -37 -43 -131q0 -20 1 -38.5t-1 -39.5q0 -18 2 -32.5t13 -24.5q8 -14 43 -35q-31 -25 -39 -37q-18 -23 -19 -51v-178q0 -16 15 -35q4 -4 28 -23q-66 -10 -130 -23l-130 -26l-124 201l-124 201v-308q0 -76 29 -104q31 -20 51 -27l-136 -27zM510 725 q-8 18 -14 41q-10 29 -19 58l-16 59l-19 -61l-16 -58q55 -10 84 -39zM1712 909q33 27 47 52q16 29 17 67q2 29 1 50.5t-3 35.5q-4 47 -21 76q-23 37 -61 35q86 10 172 14t174 2q133 -16 218 -71.5t124 -145.5q10 -27 16 -47q2 -6 5 -19l7 -28q8 -41 62 -103q-33 -6 -43 -16 q-14 -14 -21 -45q-14 -61 -48 -96t-87 -52q-43 -12 -101.5 -15t-131.5 1q-86 4 -172 -1t-172 -15q47 23 65 51q12 20 17 84v100q0 33 -19 56q-8 10 -45 30zM2048 924q-33 -20 -45 -35q-16 -20 -16 -55v-136h24q12 0 27 -2q82 -6 110 68q18 45 19 147q0 100 -19 150 q-29 84 -110 88q-14 2 -26.5 1t-24.5 -1v-127q0 -55 61 -98zM1276 217q25 27 49.5 46.5t71.5 45.5q102 39 222 60.5t237.5 32t220.5 10.5q104 0 172 -6q59 -4 117.5 -13.5t119.5 -21.5v2q-475 133 -938 63q-115 -16 -226.5 -41.5t-225.5 -48.5q-176 -37 -306.5 -57.5 t-250 -26.5t-246.5 1t-299 28q12 -4 39.5 -12.5t68.5 -18.5q84 -23 153 -37t130 -20t123 -6q61 0 131 4q115 8 199 18t106 14l58.5 10.5t48 6.5t47 -1t55.5 -9q49 -12 92 -35l12 -6l7 6zM1204 1413q-23 -27 -48.5 -46t-72.5 -44q-102 -39 -222 -60.5t-237.5 -31.5 t-222.5 -10q-102 0 -170 6q-57 4 -116.5 12t-120.5 23v-2q469 -135 938 -64q115 16 226.5 41t225.5 47q176 37 306.5 57.5t250 27.5t246.5 0t299 -28q-10 4 -38.5 12.5t-69.5 18.5q-84 23 -151.5 36t-130 20.5t-124.5 7.5q-61 0 -131 -4q-115 -8 -198.5 -18.5t-104.5 -14.5 l-60.5 -10.5t-48 -6.5t-47 1t-55.5 10q-27 6 -48 15l-44 19l-12 7q-4 -4 -6 -9z" />
<glyph unicode="'" d="M203 1262q-72 -12 -119 11t-70.5 65t-23.5 94q0 51 22.5 97t69.5 76.5t115 30.5q82 0 137 -43t78.5 -108.5t12.5 -145t-60.5 -151.5t-138.5 -128t-222 -75q18 18 51 55t65 79t55.5 81t27.5 62z" />
<glyph unicode="(" horiz-adv-x="942" d="M733 903l-50 -31q-26 -16 -42 -36q-23 -25 -34 -65t-15 -84t-3 -87t3 -76q6 -127 15 -206.5t40 -139t90.5 -112t161.5 -123.5q-291 4 -468 152.5t-245 426.5q-12 49 -16 94.5t-12 87t-27.5 79.5t-60.5 73q-16 14 -34 25.5t-36 21.5q20 14 38.5 28.5t35.5 31.5 q53 57 67.5 120.5t28.5 135.5q57 303 236.5 478t492.5 197q-76 -63 -128 -112t-87 -95.5t-54.5 -93.5t-28.5 -105t-12 -133t-3 -173q0 -53 6 -92t22.5 -70t46 -58.5t72.5 -58.5z" />
<glyph unicode=")" horiz-adv-x="790" d="M209 903l50 -31q26 -16 42 -36q23 -25 34 -65t15 -84t3 -87t-3 -76q-6 -127 -15 -206.5t-40 -139t-90.5 -112t-161.5 -123.5q291 4 468 152.5t245 426.5q12 49 16 94.5t12.5 87t27.5 79.5t60 73q16 14 34 25.5t36 21.5q-20 14 -38.5 28.5t-35.5 31.5q-53 57 -67.5 120.5 t-28.5 135.5q-57 303 -236.5 478t-492.5 197q113 -94 176.5 -160.5t93 -140t36.5 -168t7 -243.5q0 -53 -6 -92t-23.5 -70t-46 -58.5t-71.5 -58.5z" />
<glyph unicode="*" horiz-adv-x="577" d="M268 1372q-2 39 -12 68.5t-22.5 53.5t-21.5 43t-9 38q0 33 21.5 52.5t58.5 19.5q35 0 56 -21.5t21 -50.5q0 -18 -9 -37l-20 -43q-11 -25 -22.5 -54.5t-13.5 -68.5q29 14 50.5 38t43.5 56l37 52q16 23 51 22q31 0 54.5 -25.5t23.5 -56.5q0 -43 -25.5 -59.5t-78.5 -20.5 q-45 -4 -78 -9t-62 -21q43 -25 84 -29t82 -6q37 -2 57.5 -21.5t20.5 -50.5q0 -39 -22.5 -63.5t-57.5 -24.5q-33 0 -49 20.5t-39 55.5q-25 35 -46.5 59.5t-43.5 34.5q2 -37 12 -66.5t22.5 -54t21.5 -45t9 -39.5q0 -31 -22.5 -51t-56.5 -20q-35 0 -56.5 19t-21.5 50q0 18 9 38 l20 44q11 25 22.5 55.5t15.5 67.5q-49 -23 -94 -94q-20 -31 -36.5 -51.5t-51.5 -20.5t-57.5 24.5t-22.5 59.5q0 63 86 74q39 4 78 7t80 26q-63 35 -172 34q-29 0 -50.5 20.5t-21.5 51.5q0 35 22.5 59.5t57.5 24.5q33 0 49.5 -18.5t38.5 -51.5l36 -47q19 -24 54 -47z" />
<glyph unicode="+" horiz-adv-x="868" d="M528 637v-82q2 -10 2 -18t5 -19q8 -29 30.5 -55.5t52.5 -36.5h-401q0 2 13.5 8t28.5 19.5t28.5 37t17.5 62.5q2 29 1 54.5t-1 54.5v24l-38 12q-19 6 -38 11q-31 8 -66.5 13t-68.5 -1t-59.5 -25.5t-36.5 -58.5q2 10 1 18.5t-1 18.5q-4 41 0 80t33 71q25 27 58.5 40.5 t70.5 19.5t74.5 4t70.5 -6v80q0 37 -13 69.5t-46 54.5q-6 4 -14.5 7.5t-14.5 5.5h401v-2q-29 -10 -52 -34t-31 -52q-4 -10 -5 -19v-16q-2 -10 -2 -29v-82q0 -27 11 -45q47 -14 86 -19t74.5 2t68.5 28.5t68 58.5q6 -29 3 -66t-16 -63q-20 -43 -53 -68.5t-73 -39t-83 -16.5 t-86 -1z" />
<glyph unicode="," horiz-adv-x="473" d="M180 41q-72 -12 -119 11.5t-70.5 65.5t-23.5 93q0 53 22.5 99t69.5 77t115 31q82 0 137.5 -43t79 -109.5t12 -145.5t-60.5 -151.5t-138 -128t-222 -73.5q18 16 51 53t63.5 79t55 80.5t28.5 61.5z" />
<glyph unicode="-" horiz-adv-x="1421" d="M8 588q-6 57 15 102q88 195 250.5 263.5t367.5 23.5q68 -16 133 -43l131 -55q53 -23 100.5 -38.5t90.5 -16.5t86 16.5t90 60.5l88 80l-10 -88q-18 -160 -86 -241t-166.5 -104.5t-216 2t-236.5 79.5q-90 39 -169 57.5t-154.5 13t-151.5 -33t-162 -78.5z" />
<glyph unicode="." horiz-adv-x="669" d="M166 207q0 74 32.5 122t82 72.5t106.5 24.5t106.5 -24.5t82 -72.5t32.5 -122t-32.5 -122t-82 -72.5t-106.5 -24.5t-106.5 24.5t-82 72.5t-32.5 122z" />
<glyph unicode="/" horiz-adv-x="1351" d="M735 901l128 225q56 94 116.5 174t133.5 158t177 176l-6 8q-8 -4 -28.5 -17t-49.5 -34l-105 -79q-46 -36 -84 -72.5t-71 -75.5t-67 -86l-95 -137l-49 -76q-25 -45 -44 -73.5t-62 -63.5q-23 -16 -42 -26l-42 -19v-13l2 -14q4 -29 4 -55q0 -25 -10 -68q-31 -86 -81 -174 t-106.5 -168t-112 -145.5t-96.5 -106.5l-71 -68q-37 -34 -82 -69l10 -8q340 229 547 569q51 82 96 167z" />
<glyph unicode="0" horiz-adv-x="1796" d="M1792 823q-23 -12 -44.5 -26.5t-39.5 -30.5q-29 -25 -43 -45.5t-21.5 -39.5t-10.5 -44t-11 -57q-31 -135 -95.5 -247t-157.5 -191t-214 -122t-262 -43q-231 0 -408.5 121t-265.5 336q-23 55 -35 110l-24 111q-6 27 -23.5 52.5t-40 47t-48 39t-48.5 29.5q57 39 89 77 t52.5 80t33.5 91t34 111q37 113 106.5 202t159.5 151t199.5 96t226.5 34q131 0 243.5 -39t204 -110.5t157 -173t102.5 -224.5l28 -95q12 -40 29.5 -72.5t46.5 -62.5t80 -65zM1051 823l41 32q25 19 47 43t38.5 47.5t18.5 45.5q0 4 -1 20.5t-3 36t-5 38t-3 24.5 q-10 61 -28.5 121.5t-51.5 109t-83 79t-124 30.5q-72 0 -120 -28.5t-80.5 -75t-51 -104.5t-29.5 -118q-4 -27 -11 -60.5t-5 -58t18.5 -51t40 -51t49.5 -45.5l44 -35l-37 -21q-18 -11 -35 -26q-37 -31 -54.5 -61.5t-21.5 -63.5t1 -69.5t13 -77.5q12 -57 31 -113.5 t51.5 -100.5t79.5 -70.5t115 -26.5q80 0 133 35.5t87 93t50.5 127t24.5 135.5q6 57 -1 95t-48 81q-16 18 -41.5 34.5t-48.5 28.5z" />
<glyph unicode="1" horiz-adv-x="1009" d="M168 774q18 12 41.5 31.5t45 43t38 48.5t18.5 47q6 61 2 121.5t-26.5 111t-64.5 85t-111 45.5l-111 16q117 10 206 38t168 70t156 95l172 112v-637q0 -80 46.5 -133t105.5 -94q-16 -8 -42 -25.5t-50.5 -39t-42 -45t-17.5 -41.5v-279q0 -135 70 -228t209 -116h-958 q4 2 28.5 9t61.5 22.5t63 31.5q68 45 98.5 109t40 135.5t6 147t-5.5 147.5q0 29 -15 54.5t-36.5 47t-47 40t-48.5 30.5z" />
<glyph unicode="2" horiz-adv-x="1447" d="M2 -20q-6 121 4 214t43 171.5t93.5 150.5t154.5 148l42 33q19 15 32.5 34t17.5 42.5t-4 57.5l-4 5h82q141 4 233 52t138.5 116.5t49.5 146.5t-33 144.5t-110.5 110.5t-181.5 44q-109 0 -176.5 -35t-101 -84t-38.5 -103t12 -93t55 -53.5t89 16.5q37 23 54.5 50.5 t21.5 70.5q33 -55 31 -113.5t-32 -106t-81 -78t-114 -30.5q-106 0 -171 57.5t-82.5 143.5t13.5 187t111.5 187t215 143.5t322.5 57.5q119 0 233.5 -31.5t205 -97t146.5 -164t56 -229.5q0 -23 -3 -54.5t-5 -63.5t-2 -62q0 -29 8 -47q10 -27 37 -47.5t49 -34.5 q-229 -53 -454.5 -116t-438.5 -163q-82 -39 -142.5 -82t-101.5 -127q100 55 189.5 68.5t169.5 2.5t151.5 -37t136 -46.5t123 -27.5t112.5 17.5t105.5 90t100.5 192.5v-102q0 -188 -52 -301t-147.5 -161t-226.5 -39t-291 63q-96 33 -177 45t-156.5 1.5t-150.5 -44t-161 -90.5 z" />
<glyph unicode="3" horiz-adv-x="1306" d="M424 864l159 37q79 18 145.5 52t114.5 90.5t68 150.5q2 8 1 16.5t-1 16.5q0 78 -33.5 131t-88 81.5t-122 38t-133 1t-123 -32t-92.5 -57.5q-51 -51 -49 -96.5t33 -65t80 -5t96 82.5q35 -53 30 -105.5t-37 -94.5t-82 -67.5t-105 -25.5q-92 0 -149.5 48t-74 121.5t11 157.5 t107.5 158t214 122t329 48q100 0 213 -19.5t206 -67.5t154.5 -130t61.5 -207q0 -117 -57.5 -190.5t-161.5 -118.5l33 -28l34 -25q-37 -20 -65 -43q119 -53 187.5 -141.5t68.5 -223.5q0 -147 -68.5 -243.5t-175 -151.5t-236 -76.5t-249.5 -21.5q-104 0 -222 19t-216.5 69.5 t-164 135.5t-65.5 216q0 88 35 148.5t88 91t114.5 33.5t115 -20.5t89 -72.5t35.5 -125q-66 39 -126 33t-96 -40t-38 -84t51 -101q47 -45 116 -72t145.5 -33t152.5 9.5t136.5 52t98 97t37.5 146.5q0 104 -53 171t-132 108t-172 63.5t-173 38.5z" />
<glyph unicode="4" horiz-adv-x="1951" d="M1044 303q-92 20 -183 49l-183 57q-92 28 -185.5 49t-187.5 27q-47 2 -84 -1t-71.5 -10t-70.5 -17.5t-79 -24.5l10 14q23 33 59 67l71 68l67 64q31 31 45 55q20 35 21 61.5t-31 55.5q-4 4 -7.5 5t-7.5 5l19 2q55 12 116.5 45t108.5 64q135 86 261 188.5t246 211.5 l237 222q118 112 239 214v-224v-534q0 -25 17.5 -52.5t42 -53t51 -48t45.5 -35.5q-16 -10 -39 -22t-44.5 -26.5t-40 -30t-30.5 -29.5l-2 -154q51 4 112.5 11.5t122 21.5t117 33.5t99.5 48.5q-8 -18 -14.5 -37.5t-16.5 -38.5q-29 -55 -75 -106.5t-102.5 -92t-118.5 -70.5 t-122 -44q0 -80 47 -136.5t113 -93.5q45 -27 88 -43l37 -14q8 0 8 -4h-973q55 10 102.5 39t83 68.5t57 90t25.5 105.5zM1049 594v551l-293 -239l-293 -238q84 10 155.5 6t141 -16.5t139.5 -31t150 -32.5z" />
<glyph unicode="5" horiz-adv-x="1452" d="M733 815q31 16 40 37.5t-19 50.5q-25 27 -82.5 33t-130 -2t-150.5 -27.5t-143.5 -44t-110.5 -53.5t-49 -55q16 223 29 444l24 444q111 -27 237 -46t254 -25t254 3t236 38l146 37l-25 -88q-23 -82 -96.5 -136.5t-165.5 -88t-190.5 -48t-169.5 -14.5q-72 0 -142.5 8 t-142.5 21l-19 -244q104 59 213 77.5t228 16.5q129 -4 241.5 -52t190.5 -132q51 -53 108.5 -88t122.5 -66q-33 -18 -50 -34.5t-25.5 -35t-8.5 -43.5t2 -59q6 -172 -46 -297t-149 -207t-232.5 -122t-295.5 -40q-102 0 -210.5 23t-198.5 74t-148.5 134t-58.5 204q0 82 35 138 t86 86t111.5 35t112.5 -16.5t87 -69.5t35 -122q-23 8 -38 19.5t-30.5 17.5t-33.5 6t-48 -12q-47 -23 -65 -70q-18 -45 -5 -84t45 -69.5t73 -52t75 -32.5q29 -10 57.5 -11t57.5 -1q78 0 139.5 25.5t105.5 71.5t69.5 107.5t33.5 135.5q10 82 -6 134t-80 108q-18 16 -40 30z " />
<glyph unicode="6" horiz-adv-x="1679" d="M588 905q166 100 353 115.5t362 -76.5q37 -20 83 -40.5t94 -38t96 -29t89 -11.5q-14 -10 -40 -25.5t-50.5 -33.5t-44 -38.5t-21.5 -39.5q-2 -14 3.5 -27.5t9.5 -27.5q37 -158 -4 -281t-134.5 -207t-224.5 -127t-272 -43q-287 0 -476.5 146.5t-246.5 433.5q-6 35 -9 63.5 t-9.5 53t-20.5 49t-45 49.5q-37 31 -80 55q55 39 85 72t48.5 70t30.5 80t33 102q86 258 281.5 386t463.5 128q78 0 170 -18.5t171 -60.5t131 -108.5t52 -164.5q0 -66 -30.5 -113t-76.5 -72.5t-101.5 -30.5t-104.5 12t-87 56t-48 103l24 2q39 2 69 18.5t43 39t6 51t-40 59.5 q-35 29 -75.5 38t-83.5 9q-119 0 -193 -55.5t-114 -140.5t-53 -186.5t-13 -195.5zM848 178q84 0 140 46t85 116t29 149q0 80 -29 150t-85 116t-140 46q-86 0 -142.5 -46t-85 -116t-28.5 -150t28.5 -149.5t85 -115.5t142.5 -46z" />
<glyph unicode="7" horiz-adv-x="1427" d="M227 821q76 20 174.5 66.5t197.5 103t191.5 115.5t157.5 108q55 41 102 91l93 102q-106 -41 -221 -41q-113 0 -225.5 9t-219 11.5t-199 -35.5t-166 -131.5t-118.5 -275.5l-2 678q2 -2 20.5 -16.5t75.5 -17.5t152 32q119 45 225 49t205.5 -10t193.5 -37t189.5 -31 t191.5 8.5t199 79.5q-37 -164 -108.5 -295t-170.5 -264q-16 -23 -31.5 -51.5t-24.5 -60t-9 -64.5q0 -31 12 -57q10 -18 24.5 -34.5t26.5 -33.5q-66 -6 -105.5 -19.5t-70.5 -32.5t-62.5 -47t-80.5 -63q-53 -39 -117.5 -79.5t-128 -89t-117 -107.5t-84.5 -133q-25 -57 -35 -96 t-12 -70t1 -55.5t7 -51.5q10 -76 45 -122t80 -66t92.5 -15t81 31.5t49 71.5t-3.5 107q37 4 84.5 -3.5t71.5 -39.5q6 -8 13.5 -23.5t11.5 -32.5l8 -33q4 -16 4 -26q4 -59 -21.5 -101t-68.5 -70t-98.5 -42t-111.5 -15.5t-109.5 11t-90.5 35.5q-35 20 -66.5 43.5t-60.5 52.5 q-154 166 -184.5 367.5t68.5 406.5q14 31 45.5 73t54 87t22.5 84q0 40 -47 65z" />
<glyph unicode="8" horiz-adv-x="1406" d="M895 1010q72 37 118 94t46 143q0 70 -46 118t-117 72.5t-151.5 25.5t-151.5 -18.5t-117 -61.5t-46 -103q0 -59 56.5 -103t133 -77t154.5 -54.5t121 -35.5zM1235 864q100 -61 154.5 -148t54.5 -206q0 -152 -63.5 -254t-165 -163.5t-229.5 -88.5t-257 -27 q-109 0 -235.5 18.5t-236.5 68t-183.5 137.5t-73.5 227q0 104 50 180t138 129q-23 27 -51 47.5t-59 36.5q29 20 54.5 41t45.5 47q-113 115 -112 273q0 121 56 211t147 149.5t208 90t240 32.5t239.5 -22.5t207.5 -75.5t147.5 -127t56.5 -174q0 -82 -37 -144.5t-102 -109.5 q41 -47 98 -82q-25 -14 -48.5 -30t-43.5 -36zM516 700q-104 -51 -153.5 -109.5t-49.5 -139.5q0 -123 105.5 -197t296.5 -74q176 0 266 59.5t90 159.5q0 49 -35 85t-103.5 68t-172.5 65z" />
<glyph unicode="9" horiz-adv-x="1671" d="M1077 735q-82 -49 -171 -79.5t-181 -37t-184 12t-179 65.5l-81 40q-45 22 -94.5 39.5t-97.5 29.5t-89 12l40 24q26 15 50.5 33.5t43 39t22.5 38.5q2 16 -2 30l-9 28q-39 158 2 280.5t134.5 205.5t224.5 126t272 43q289 0 477.5 -145.5t245.5 -432.5q6 -35 9 -63.5 t10.5 -54t21.5 -50t43 -49.5q39 -33 80 -53q-55 -39 -85 -71.5t-48.5 -69.5t-30.5 -81t-33 -103q-86 -258 -280.5 -386.5t-462.5 -128.5q-80 0 -172 18.5t-171 60.5t-131 109.5t-52 164.5q0 66 30.5 112.5t76.5 72.5t101.5 31t104.5 -12.5t87 -56.5t48 -102h-24 q-39 0 -68 -15.5t-42 -40t-7 -54t39 -58.5q35 -31 76 -40t86 -9q119 0 191.5 55t112.5 140t53 187.5t13 194.5zM819 1464q-86 0 -142 -46t-84 -115.5t-29 -149.5t28 -149.5t85 -115.5t142 -46t142.5 46t85 115.5t28.5 149.5t-28.5 149.5t-85 115.5t-142.5 46z" />
<glyph unicode=":" horiz-adv-x="507" d="M82 1159q0 76 34 126t85 75.5t108 25.5q59 0 110.5 -24.5t85.5 -75.5t34 -127t-34 -126t-85 -74.5t-111 -24.5q-57 0 -108 25.5t-85 75.5t-34 124zM82 457q0 74 34 124t85 75.5t108 25.5q59 0 110.5 -24.5t85.5 -75t34 -125.5q0 -76 -34 -127t-85 -76t-111 -25 q-57 0 -108 26t-85 76t-34 126z" />
<glyph unicode=";" horiz-adv-x="477" d="M-8 856q0 68 30.5 113t75.5 67.5t99 22.5q55 0 100 -22.5t75.5 -67.5t30.5 -113q0 -70 -30.5 -115t-75.5 -67.5t-100 -22.5q-53 0 -98.5 23.5t-76 68.5t-30.5 113zM195 43q-74 -12 -123 12.5t-73 66.5t-24 95t24 100.5t72 79t117 31.5q84 0 140.5 -44t80 -111.5 t12.5 -148.5t-62.5 -155.5t-142.5 -131t-228 -77.5q20 18 54 55.5t65.5 80.5t56.5 82.5t31 64.5z" />
<glyph unicode="&#x37e;" horiz-adv-x="477" d="M-8 856q0 68 30.5 113t75.5 67.5t99 22.5q55 0 100 -22.5t75.5 -67.5t30.5 -113q0 -70 -30.5 -115t-75.5 -67.5t-100 -22.5q-53 0 -98.5 23.5t-76 68.5t-30.5 113zM195 43q-74 -12 -123 12.5t-73 66.5t-24 95t24 100.5t72 79t117 31.5q84 0 140.5 -44t80 -111.5 t12.5 -148.5t-62.5 -155.5t-142.5 -131t-228 -77.5q20 18 54 55.5t65.5 80.5t56.5 82.5t31 64.5z" />
<glyph unicode="&#x3c;" horiz-adv-x="1118" d="M569 829q-2 4 2 -2t21 -28q113 -127 178.5 -226.5t98 -171t41 -117.5t8.5 -67l-7 -24l-18 22q-49 61 -106.5 115.5t-133 102.5t-174 92t-229.5 85l-33 11l-4 18l-15 60l-28 106q-4 16 -2 31.5t2 17.5l28 109l15 61l4 16l27 11q131 51 229 96t175 92t135.5 99.5 t109.5 113.5l18 23l7 -25q0 -23 -8.5 -69t-41 -118.5t-98 -172t-178.5 -228.5q-16 -23 -20.5 -29t-2.5 -4z" />
<glyph unicode="=" horiz-adv-x="1185" d="M229 797q-4 39 11 69q59 129 165.5 174t241.5 15q45 -10 87 -29l85 -37q70 -29 125 -34t117 49l30 26l27 27q-2 -16 -3 -29.5t-3 -28.5q-16 -121 -77.5 -182t-186.5 -51q-53 4 -102.5 20.5t-96.5 38.5q-59 27 -111.5 38t-101.5 8t-99.5 -22t-107.5 -52zM156 508 q-4 39 10 67q59 129 164.5 173.5t240.5 15.5q47 -10 89 -29l85 -37q70 -29 125.5 -34t116.5 51l29 25l28 26q-2 -14 -3 -28.5t-3 -28.5q-16 -121 -78.5 -181.5t-187.5 -50.5q-53 4 -101 20.5t-96 37.5q-61 27 -112 39t-100.5 9t-99.5 -22.5t-107 -52.5z" />
<glyph unicode="&#x3e;" horiz-adv-x="1118" d="M567 829q2 4 -2 -2t-20 -28q-113 -127 -178.5 -226.5t-98 -171t-41 -117.5t-8.5 -67l6 -24l19 22q49 61 106.5 115.5t132 102.5t173 92t231.5 85l33 11l4 18l15 60l28 106q4 16 2 31.5t-2 17.5l-28 109l-15 61l-4 16l-27 11q-133 51 -231.5 96t-174 92t-134 99.5 t-109.5 113.5l-19 23l-6 -25q0 -23 8.5 -69t41 -118.5t98 -172t178.5 -228.5l20 -29t2 -4z" />
<glyph unicode="?" horiz-adv-x="1425" d="M502 229q0 84 36.5 140.5t93 84t122.5 27.5t122 -28.5t93 -84t37 -139.5t-37 -139t-93.5 -84t-121.5 -29q-66 0 -122.5 28t-93 84t-36.5 140zM561 545q-4 76 -15 125t-36 86t-63.5 67.5t-100.5 73.5q106 -4 222 2t212.5 43t158.5 117t62 221q0 111 -63.5 186.5 t-157.5 111.5t-199.5 30t-189.5 -60q-88 -57 -117.5 -133t-15.5 -137t63.5 -91t118.5 7q47 27 63.5 58.5t26.5 80.5q63 -127 0 -248q-29 -55 -79 -87.5t-109 -41t-119.5 6t-110 54.5t-81 104.5t-31.5 154.5q0 137 65.5 244.5t172 180.5t243.5 111.5t279.5 42t280 -31.5 t244 -110t172 -190.5t65.5 -273.5q0 -63 -8.5 -111t-5.5 -90t25.5 -80t86.5 -79q-193 -41 -388.5 -87t-379.5 -116q33 -70 35 -141h-326z" />
<glyph unicode="@" horiz-adv-x="1669" d="M1591 819q0 170 -63.5 319.5t-175 260t-261 175t-319.5 64.5q-86 0 -185.5 -23.5t-193.5 -68.5t-175 -108.5t-130 -144.5t-59.5 -177t37.5 -205q33 -76 103.5 -125t154.5 -45q57 0 104 21l-21 -56l-29 -74q-15 -38 -31.5 -71t-31.5 -45q-10 -10 -28 -23l-31 -22 q-12 -8 -14 -10h417q-47 12 -77.5 50t-26.5 97q2 12 5 23.5t7 23.5l62 219q35 8 67.5 -3t60 -33.5t48 -52t31.5 -60.5q0 -2 6 -18l14 -40q8 -24 8 -36q2 -25 -4 -52.5t-20.5 -52t-36 -42t-47.5 -23.5h559q-14 4 -26.5 11t-22.5 15q-25 18 -52.5 73.5t-51 113t-38.5 102.5 l-14 45q-2 29 19.5 49.5t33.5 28.5q-33 14 -68.5 33.5t-47.5 58.5l-105 340h-465q2 0 20.5 -7t43 -27.5t32.5 -57.5q4 -23 -5 -62.5t-22.5 -82.5t-28.5 -84l-23 -62l-130 -24.5t-129.5 -3t-101.5 51.5t-47 138q-4 63 34 141t121 144.5t216 111.5t319 45q156 0 280 -55 t210 -152.5t132 -231.5t46 -290q0 -127 -27.5 -247.5t-84 -222t-141.5 -177.5t-198 -110q-63 -20 -136 -24.5t-148.5 5.5t-149.5 31.5t-139 54.5q-76 37 -129 91.5t-89 107.5t-55.5 96t-27.5 57q61 10 78.5 48t4 77t-52 61.5t-88.5 2.5q-18 -6 -33.5 -22.5t-22.5 -42 t-3 -61.5t29 -81q117 -221 305 -344t436 -123q152 0 286 51t242 144q12 10 59.5 58t98.5 129t92 191.5t41 245.5zM772 913q-23 23 -52.5 34t-64.5 16l23 77l24 88l50 -157z" />
<glyph unicode="A" horiz-adv-x="2629" d="M1165 870l-131 -462q-8 -25 -14 -47.5t-8 -49.5q-1 -14 -1 -27q0 -47 11 -88q14 -52 44 -91t72 -66t91 -39h-877l18 12l42 30l51 38q27 20 43 37q29 27 63.5 94.5t68.5 146t61 154.5l44 119q-53 -23 -108 -30t-113 -9q-13 0 -25 -1q-159 0 -279 74q-130 79 -202 238 q-12 29 -15 59q-2 18 -2 36q0 12 1 24q135 -70 239 -88q64 -11 126 -12q38 0 75 5q98 11 201.5 41.5t239.5 57.5l28 78l40 106q22 57 42.5 120t35.5 120t22 105q3 24 3 44t-3 35q-12 59 -46 96t-69 58.5t-62 30.5l-26 8h975l221 -715q12 -39 38.5 -68.5t61.5 -52t72 -40 t72 -31.5q-12 -8 -32 -22.5t-38 -36t-31.5 -47.5t-11.5 -56l15 -52q15 -52 41 -128t60.5 -160t71.5 -146q49 -80 93.5 -131t81 -80.5t63.5 -43t41 -15.5l-1210 -2q57 14 102 51t74.5 87t44.5 108q10 40 10 78q0 16 -2 32q-2 20 -12 55l-21 65q-10 32 -19 55l-10 24 q-18 61 -61 124.5t-101.5 112t-127.5 71.5q-41 14 -83 14q-30 0 -59 -7zM1462 950l-41 119l-102 334l-53 -186l-47 -164q72 -8 134 -32t109 -71z" />
<glyph unicode="B" horiz-adv-x="2207" d="M1362 969q35 -8 69.5 -17.5l69.5 -19.5q199 -55 340 -162.5t226 -249t112 -304.5q12 -72 12 -144q0 -91 -19 -183q-34 -164 -126 -318.5t-246 -279.5q-133 -109 -304 -170t-352 -78q-67 -6 -134 -7q-114 0 -227 19q-179 30 -330 103q-72 35 -134.5 87.5t-108.5 118 t-69 141.5q-15 53 -15 108q0 25 3 51q12 100 66.5 166t129.5 97q68 29 144 29h14q84 -3 157 -38t123 -101.5t56 -164.5q-29 4 -54 4q-57 0 -97 -20q-57 -28 -75 -72q-7 -19 -8 -40q0 -28 14 -61q24 -55 95 -98q61 -39 137 -55q64 -14 130 -14q12 0 24 1q78 3 152.5 22 t138.5 52q172 88 268 225.5t124 291.5q12 67 12 136q0 88 -20 178q-36 159 -126 292t-231.5 225t-323.5 115q-39 5 -77 5h-12q-44 -1 -87 -1v-353q0 -76 6 -150.5t30.5 -139t73 -114.5t131.5 -81h-1095l37 12q37 12 82 56.5t82.5 129.5t37.5 230q0 102 5 170q1 17 1 33 q0 48 -10 87q-12 52 -52 97t-128 105q35 25 66.5 50t56.5 60q31 45 44 91t17 94q3 32 3 65q0 16 -1 33q-2 49 -2 102q0 59 -12 126t-39.5 125t-74 102t-113.5 59h1100q72 0 157.5 -5t170.5 -23.5t160 -54.5t124 -97q35 -43 47 -71l24 -51q11 -24 35.5 -50.5t83.5 -67.5 l-45 -29q-23 -14 -41 -32q-23 -23 -32 -42.5t-19 -48.5q-23 -57 -59.5 -102t-82.5 -80t-100.5 -60.5t-109.5 -43.5zM803 1077h88q131 0 203.5 55.5t72.5 194.5q0 137 -69.5 187.5t-198.5 50.5h-96v-488z" />
<glyph unicode="C" horiz-adv-x="1996" d="M1030 926l-67 -45q-33 -23 -58 -56q-29 -37 -31 -103v-18q0 -58 12 -121q13 -73 37.5 -138.5t53.5 -100.5q57 -70 145 -103q85 -33 176 -33h6q93 1 180 38t144 108q43 54 43 111q0 48 -26 80q-29 35 -86 45q-15 3 -32 3q-46 0 -102 -22q-5 29 -5 56q0 56 23 104 q34 72 97.5 118t145.5 65q46 11 90 11q35 0 70 -6q79 -15 142.5 -67.5t92.5 -149.5q16 -57 16 -112q0 -34 -6 -69q-16 -89 -61 -168t-114 -142.5t-147 -104.5q-135 -74 -282.5 -111.5t-297.5 -38.5h-8q-147 0 -290 38q-147 39 -281 119q-180 109 -305 279.5t-162 379.5 q0 2 -3 13.5t-17 31t-43 47t-80 62.5q61 41 99 87t61.5 95t39 100.5t34 104.5t44 106.5t70.5 106.5q106 125 215 197.5t215.5 108.5t208.5 42q41 2 81 2q59 0 116 -5q94 -9 179 -24.5t156 -23.5q35 -4 66.5 -4t60.5 4q56 8 93 45q-17 -50 -18 -84q0 -34 40 -68 q59 -49 79 -119q8 -28 8 -57q0 -42 -17 -86q-27 -74 -78 -109.5t-109 -40.5q-11 -1 -22 -1q-47 0 -94 18q-57 23 -97 66t-54 103q-4 19 -4 39q0 44 20 93q-18 8 -33 10q-35 5 -75 5q-13 0 -27 -1q-54 -2 -101 -12q-82 -16 -130 -55t-76.5 -92.5t-42 -119t-25.5 -134.5 q-9 -52 -10 -91q0 -47 38 -100q25 -35 54.5 -59t64.5 -47z" />
<glyph unicode="D" horiz-adv-x="2848" d="M2087 1081q-18 82 -54 163t-90.5 147.5t-127 112.5t-162.5 59q-43 6 -87 7t-87 1q-2 -39 -2 -78v-78q0 -88 -3 -155q-1 -14 -1 -27q0 -52 10 -97q12 -56 49 -108.5t119 -107.5q-90 -59 -128 -109.5t-48 -107.5q-6 -35 -7 -75q0 -24 2 -49q6 -69 7 -163q0 -133 35.5 -215 t79.5 -126t81 -60l37 -15h-1085q2 0 24.5 7t57 31.5t68.5 68t57.5 117t23.5 179.5q0 53 4 115q2 27 2 55q0 34 -3 67q-5 60 -23.5 114.5t-61.5 93.5q-23 20 -48 38l-50 34q39 27 75.5 58.5t59.5 72.5q25 41 34 86t12 92q2 28 2 56q0 19 -1 38q-2 47 -2 92q0 37 -2 79t-9 83 t-21.5 80t-37.5 67q-29 35 -76.5 67t-95.5 36h1104q127 0 260 -24.5t253 -79t217.5 -141.5t154.5 -210q37 -80 48 -137t28.5 -107.5t53.5 -99.5t122 -108q-41 -27 -78 -56.5t-65 -70.5q4 -25 3 -49.5t-3 -49.5q-18 -186 -77 -354t-158 -309.5t-237.5 -252t-312.5 -181.5 q-121 -49 -267.5 -79t-304.5 -38q-58 -3 -116 -3q-102 0 -205 9q-162 14 -314.5 51t-286.5 99.5t-236 148.5q-66 55 -120 129t-87 156t-41 171q-2 22 -2 44q0 66 18 131q37 121 117 191.5t179 93.5q56 13 113 14q45 0 90 -8q103 -18 185 -76t130 -151q38 -74 39 -166 q0 -23 -3 -48q-76 20 -134 21q-29 0 -52 -5q-72 -15 -103 -60q-24 -35 -24 -81q0 -12 2 -25q8 -62 53 -124t126 -113t196 -72q89 -16 188 -15q54 0 110 4q161 13 312 64.5t280 141.5t205 217q23 37 49.5 105.5t49 143.5t34.5 145q8 47 9 82q0 17 -2 32q-4 29 -23.5 57.5 t-46.5 53t-56.5 46t-54.5 36.5q47 31 88 69.5t66 91.5z" />
<glyph unicode="E" horiz-adv-x="2045" d="M1999 1380l-12 -104q-12 -96 -40 -176t-77 -137.5t-124 -86.5q-66 -26 -156 -27q-12 0 -25 1q-55 2 -104.5 14.5t-96.5 30.5t-93 38.5t-95 39.5q-39 14 -78 31.5t-79 28.5t-81 13h-5q-38 0 -79 -14q-49 -18 -72.5 -54t-30.5 -81q-6 -35 -6 -72v-21q2 -48 3 -91v-455 q154 0 283 -1h20q119 0 219 11q109 12 200 46t167.5 103.5t140 182.5t118.5 283l-55 -883h-1837l37 15q37 15 81 58.5t81 122t37 205.5q0 104 6 178q2 26 2 49q0 43 -7 80q-11 56 -48 105t-123 107q68 47 119 106t51 150q0 27 0.5 91t0.5 99q0 94 -20 183q-20 93 -70.5 169 t-150.5 109h1790l39 -559q-43 96 -123 154.5t-177 90t-201.5 43t-199.5 11.5l-380 2v-422q94 100 181 146t168 56q26 3 51 3q54 0 104 -14q75 -19 145 -47l135 -56q66 -29 129 -39q24 -4 47 -4q39 0 78 11q61 17 121 81z" />
<glyph unicode="F" horiz-adv-x="1939" d="M2079 1380l-11 -102q-16 -164 -75.5 -261t-151.5 -137q-69 -30 -154 -30q-28 0 -58 3q-120 13 -257 71q-43 16 -95 40.5t-107.5 45t-109.5 28.5q-18 3 -36 3q-35 0 -66 -11q-68 -23 -95 -86t-27 -129v-313q0 -76 6 -155t30.5 -147.5t74.5 -121.5t140 -78h-1087 q98 51 147.5 122t70 153.5t21.5 175t1 184.5q0 70 -13.5 124t-70.5 101q-20 16 -42 29.5t-44 30.5l22 14q39 25 73 61.5t52 79.5q16 37 21.5 80t5.5 86q0 45 -2 88t-2 84q0 61 -14.5 125t-44 120t-75 101t-106.5 68h1798l60 -561l-19 24q-18 25 -46 56.5l-59.5 64.5 t-58.5 51q-111 72 -239.5 89.5t-257.5 17.5h-342v-414q94 98 181 142t166 53q23 2 46 2q55 0 107 -14q75 -19 144 -48l134 -56q66 -28 128 -38q23 -4 46 -4q39 0 78 11q61 17 121 81z" />
<glyph unicode="G" horiz-adv-x="2560" d="M1012 926l-66 -45q-33 -23 -57 -54q-28 -38 -28 -94q0 -52 5 -108q12 -141 72.5 -235.5t152.5 -135.5q69 -31 150 -31q27 0 54 3q114 13 231 87q66 41 117 86t86 117q31 63 44 147q6 39 6 75q0 43 -9 84q-15 77 -64 132.5t-141 61.5q-9 1 -18 0q-48 0 -87 -19 q-45 -23 -73.5 -56.5t-38.5 -72.5q-5 -18 -5 -33q0 -18 7 -33q12 -28 50 -38q12 -3 26 -3q32 0 79 15q2 -18 3 -34q0 -41 -15 -76q-20 -49 -60 -81t-92 -46q-31 -9 -61 -9q-20 0 -39 4q-49 9 -92 40.5t-66 91.5q-18 49 -18 96q0 36 11 71q26 79 84.5 143t135 111.5 t146.5 73.5q94 35 178 49q56 10 110 10q27 0 54 -2q80 -7 158.5 -35t166.5 -73q59 -33 118 -56.5t114 -28.5q12 -1 23 -1q44 0 86 15q54 19 106 75l88 92l-10 -98q-12 -121 -54.5 -209t-112 -138t-165.5 -60q-20 -2 -41 -1q-80 0 -176 27q-8 -201 -85 -353.5t-261 -250.5 q-133 -72 -278.5 -110t-293.5 -39h-8q-143 0 -283 36q-144 37 -276 117q-176 106 -300 275t-159 374q0 10 -2 12q-20 45 -60 78t-79 60q86 59 127 128.5t68 145.5l55 156q29 80 92 160q123 156 255 230.5t264 97.5q89 16 176 16q41 0 81 -3q125 -11 233.5 -28t195.5 -22 q11 -1 21 0q73 0 122 32l18 12q-17 -46 -17 -79.5t40 -67.5q57 -49 76 -118q8 -29 9 -58q0 -40 -16 -82q-27 -74 -78 -108.5t-108 -39.5q-9 -1 -18 0q-48 0 -96 19q-56 23 -95 64.5t-52 101.5q-4 19 -5 38q0 42 20 89q-16 6 -31 10q-40 5 -85 5h-15q-53 -1 -100 -11 q-80 -16 -128 -55t-76 -91.5t-41 -117t-24 -131.5q-9 -52 -9 -90q0 -46 36 -97q25 -35 53.5 -59t63.5 -47z" />
<glyph unicode="H" horiz-adv-x="2293" d="M850 1085q90 129 221 180q99 38 211 37q36 0 74 -4q0 51 -1 134.5t-15.5 164t-48.5 146t-97 84.5h1006q-74 -16 -119 -64.5t-72 -117t-37 -149.5t-12 -160q-1 -32 -1 -62q0 -46 2 -88q3 -72 3 -121q56 -17 100 -17q9 0 17 1q49 4 92 25.5t84 55.5l90 76 q-10 -94 -28.5 -181t-58.5 -154.5t-109.5 -106.5t-186.5 -39v-109q0 -61 1 -117.5t1 -97.5v-39q0 -104 32 -173.5t68.5 -111.5t67.5 -60l31 -17h-965l17 16q14 14 36.5 40t36.5 48q43 70 53.5 134.5t12.5 136.5q3 94 3 187q0 46 -1 92q-2 138 -2 280q-43 14 -98.5 25.5 t-111.5 13.5h-25q-43 0 -86 -5q-54 -7 -97 -28q-29 -14 -46.5 -29.5t-26.5 -34t-12 -42t-3 -54.5q0 -104 -1 -206v-67q0 -68 1 -138q2 -72 10 -133.5t53 -124.5q18 -27 48 -53.5t49.5 -41t23.5 -16.5h-1034q61 27 106.5 78t75 113.5t45 131t15.5 130.5v206q0 51 -9.5 83 t-42.5 73q-29 33 -61 56l-68 49q47 33 84 66.5t64 86.5q18 39 26.5 81t9.5 86v29q0 29 -1 58q-2 43 -2 86q0 57 -12.5 125t-41 127t-74.5 104.5t-114 57.5h1014q-57 -23 -89 -56.5t-47.5 -77.5t-18.5 -94.5t-5 -101.5q-2 -104 -3 -206t-1 -206z" />
<glyph unicode="I" horiz-adv-x="1128" d="M1018 920l-61 -41q-30 -20 -54 -48q-23 -25 -35 -43t-17 -36.5t-6 -40t-1 -52.5v-243q0 -133 38 -214t84 -126t84 -61l37 -15h-1087l37 13q37 13 81 51t81 106t39 174l1 32q1 32 1 77q0 47 1 98t1 88q0 61 -9.5 100t-31 69t-54 54.5t-81.5 57.5q47 33 77.5 58.5 t61.5 76.5q23 39 32 84t10 91v23q0 35 -2 70q-3 47 -3 90q0 141 -37 224t-83 125t-84 54l-38 11h1092q-72 -27 -120 -68t-77 -94t-40 -116.5t-11 -135.5q0 -96 -3 -165q-1 -13 -1 -25q0 -54 11 -98q13 -54 50 -102t117 -103z" />
<glyph unicode="J" horiz-adv-x="1619" d="M1647 924q-29 -16 -55.5 -36t-49.5 -42q-27 -29 -41 -55.5t-21 -54t-9.5 -58.5t-2.5 -68q-3 -126 -3 -251v-62q1 -156 1 -313q0 -152 -62.5 -282t-166.5 -232.5t-242.5 -174t-291.5 -108.5q-145 -35 -292 -35h-17q-157 2 -299 47t-260 137.5t-193 237.5 q-16 29 -21.5 60.5t-11.5 62.5q-14 82 -15 155q0 84 19 158q35 139 111.5 239.5t185 158t224.5 67.5q24 2 47 2q92 0 181 -32q113 -40 197 -132q41 -43 68.5 -96t44.5 -111q17 -65 17 -122q0 -46 -11 -86q-25 -92 -84 -153.5t-141 -88.5q-51 -16 -101 -17q-31 0 -61 7 q-80 16 -146.5 78.5t-95.5 177.5q53 -16 100 -16q32 0 62 8q72 18 111 60q38 41 37 93q0 56 -56 105q-53 43 -107 48q-10 1 -20 1q-44 0 -85 -19q-50 -23 -92 -65.5t-69 -93.5q-49 -99 -49 -200v-16q4 -109 55.5 -198.5t141.5 -150t209 -66.5q28 -2 55 -2q139 0 231 45 q111 53 174.5 151.5t88 229.5t30.5 276q3 113 4 225q0 28 -1 56q-1 139 -1 280q0 57 -10 95t-32.5 68t-56.5 53l-81 55l67 49q34 25 59.5 54.5t41.5 65t16 81.5q0 53 1 119q0 13 1 27q0 54 -4 108q-4 69 -17 136.5t-42 123t-76 93.5t-119 46h1074q-102 -31 -149.5 -98.5 t-62.5 -151.5q-13 -70 -13 -147v-31q3 -94 3 -178q0 -109 46.5 -173.5t132.5 -123.5z" />
<glyph unicode="K" horiz-adv-x="2523" d="M3066 -475q309 57 694 118.5t807 115t862.5 89t857.5 41.5q66 1 131 1q346 0 664 -27q377 -33 674 -117q109 -31 238.5 -83t255.5 -121.5t235.5 -153.5t175.5 -179q82 -119 121 -260q20 -73 20 -145q0 -69 -18 -139q-41 -162 -165 -287t-296 -219t-378 -160.5 t-410.5 -112t-394 -70t-328.5 -36.5q-214 -18 -425 -18q-216 0 -429 19q-420 38 -827.5 139.5t-801 260t-774.5 359.5q-287 154 -558 326.5t-537 361.5q-10 8 -23 16l-24 17q-238 -41 -470.5 -99.5t-469.5 -101.5q-733 -133 -1474 -184q-411 -28 -824 -29q-330 0 -662 18 q-186 10 -368.5 46t-360.5 94q-70 23 -165 61.5t-187 87.5t-169 109.5t-112 126.5q-49 93 -49 191v16q4 106 64 202q70 113 168 156q79 35 160 35q19 0 38 -2q100 -10 189.5 -67.5t141.5 -144.5t52 -196q0 -111 -76 -227q23 -29 60 -43.5t71 -24.5q297 -102 619 -131 q484 -44 968 -43l351 5q659 22 1317 110q254 35 501.5 80t501.5 82q-72 53 -138 112l-132 123q-164 160 -299 310.5t-236.5 315.5t-168 353.5t-91.5 423.5l-258 -278q0 -49 -3 -119q-2 -42 -2 -87q0 -30 1 -62q2 -79 11.5 -158.5t33 -146t63.5 -115t103 -60.5h-1044 q72 10 117.5 49t72.5 96.5t38 126t14 139.5q2 42 2 83q0 27 -1 53q-2 66 -2 117q0 33 -1 54t-6 37.5t-16.5 34t-34 42t-51 45t-57.5 36.5q35 23 66 49.5t55 61.5q27 37 36 65.5t9 73.5q0 68 2 172q0 11 1 22q0 93 -16 186q-17 103 -64.5 184t-147.5 102l1014 -2 q-55 -12 -90 -61.5t-56.5 -118t-32 -149.5t-13.5 -160q-2 -47 -2 -91q0 -29 1 -56q2 -69 2 -112l619 645q20 20 3.5 40t-44 34t-53.5 23l-27 8h829q-76 -4 -160.5 -38t-173 -86t-175.5 -118.5t-165.5 -138.5t-144 -141.5t-110.5 -128.5q45 -49 106 -55q13 -1 26 -1 q49 0 99 16q63 19 120.5 54t94.5 68q16 -92 34.5 -182.5t47.5 -178.5q74 -238 199 -435.5t286.5 -364.5t352 -308t395.5 -266zM3244 -586l194 -112l197 -109q4 -2 10.5 -6t27.5 -15l64 -35l116 -65l190 -101l278 -149q299 -156 598 -263t604 -183q283 -70 574 -106.5 t570 -39.5q27 0 53 -1q252 0 486 27q259 30 477 91.5t386 154.5t266 216q68 117 68 221q0 109 -54 204q-52 91 -141.5 167t-193 134t-209 100t-188.5 67q-170 47 -347.5 77.5t-357.5 48t-361 22.5q-129 4 -256 4q-50 0 -100 -1q-362 -6 -733 -37.5t-743.5 -78.5t-742.5 -106 l-732 -120h-8z" />
<glyph unicode="L" horiz-adv-x="1224" d="M3176 -684q-47 99 -47 188q0 23 3 45q15 109 78 188t157 124q88 42 182 42h12q100 -3 192.5 -58.5t147.5 -176.5q37 -81 37 -170q0 -15 -1 -30q-7 -106 -66 -193q-16 -25 -44 -53.5t-58.5 -56t-62.5 -51t-59 -36.5q-250 -127 -496 -160q-115 -16 -228 -16q-131 0 -260 21 q-241 39 -473 142.5t-451 254.5q-59 39 -116 85l-112 93l-111 92q-56 45 -116 82q-139 86 -243.5 144.5t-194.5 95.5t-174 56.5t-181.5 27.5t-217 9t-279.5 1q2 2 16 9l31 16l32 16q15 8 21 14q43 33 71 78t43 96.5t21.5 104.5t6.5 104q0 88 4 154q1 16 1 32q0 47 -10 88 q-12 54 -50 102t-124 104q76 51 114 97t52 98q13 49 14 106q0 21 -0.5 71t-0.5 82q0 51 -6.5 108.5t-23 112t-45 101.5t-73.5 80q-23 16 -47.5 23t-46.5 24h1096q-2 0 -16 -4l-35 -12q-22 -7 -33 -13q-72 -37 -107 -105.5t-47 -150.5q-11 -76 -11 -154v-13q1 -85 1 -152 q0 -104 49 -174t133 -125q-51 -33 -86 -59.5t-56.5 -59.5t-30.5 -75t-9 -105v-414q176 -76 303 -140.5t236.5 -136t217.5 -162.5l250 -218q102 -92 234.5 -183.5t279 -153t297.5 -80.5q43 -6 85 -6q106 0 208 35q59 23 121.5 61t101.5 89z" />
<glyph unicode="M" horiz-adv-x="2701" d="M-217 -111q-49 -60 -49 -119q0 -50 25 -88q28 -42 77 -65q40 -18 85 -18q10 0 21 1q56 5 112.5 44t97.5 123q16 33 25 101.5t12.5 154.5t3.5 180q0 96 -2.5 186l-4.5 166t-2 121q0 57 -7 92t-50 74q-27 23 -53.5 42l-55.5 38q37 25 67 51t56 61q27 39 38 91.5t15 107.5 q2 33 1 66v44q-2 55 -2 101q0 53 -10.5 113.5t-37 114.5t-72.5 96t-118 61h1020l309 -1090l336 1090h1044q-80 -14 -125 -67.5t-67.5 -125t-28.5 -149.5t-6 -141q0 -45 -1 -83v-19q0 -28 2 -56q3 -37 14.5 -74t35.5 -76q25 -37 57.5 -64.5t69.5 -51.5l-57 -38 q-29 -19 -51 -44q-45 -47 -57.5 -98.5t-12.5 -114.5q0 -94 -2 -188v-19q0 -83 15 -158q17 -84 66.5 -151.5t152.5 -110.5h-981q20 14 40.5 24.5t40.5 28.5q33 31 55.5 77t38 96t22.5 101.5t7 94.5v1106l-469 -1528h-428l-444 1526q0 -209 2 -415q1 -69 1 -138 q0 -138 -3 -277q-2 -170 -7 -339t-5 -339q0 -98 -26 -174.5t-68 -138t-96 -109t-111 -85.5q-61 -41 -127 -69t-134 -37q-32 -4 -64 -4q-36 0 -73 5q-70 10 -137 45q-53 27 -101 67t-78 89q-33 55 -33 115q0 53 34 108q25 41 61.5 59.5t74.5 21.5q11 1 22 1q25 0 49 -5 q33 -8 51 -18z" />
<glyph unicode="N" horiz-adv-x="2183" d="M324 649l1 19q1 18 -1 41q-2 33 -8.5 63.5t-32.5 48.5q-23 29 -44.5 44.5t-56.5 37.5l-24 17l32 24q35 25 56.5 46.5t38.5 45.5q-4 -4 2 2t14 26.5t15.5 57.5t7.5 95v196q0 16 -1 29.5t1 23.5v14q0 122 -36 190q-38 73 -84 107.5t-84 42.5l-38 7h905l674 -1231v817 q0 14 -1 26.5t-1 22.5q0 129 -39 202t-87 109.5t-87 45.5l-39 8h803l-34 -6q-34 -6 -74 -43t-73.5 -116t-33.5 -224v-25v-205q0 -35 -1 -54t1 -34.5t11 -33t28 -46.5q16 -27 37.5 -48t56.5 -48l33 -24l-25 -17q-23 -14 -38 -25.5l-30 -23.5q-35 -29 -54 -62.5t-19 -99.5 v-117v-135v-135v-123q0 -45 18.5 -78.5t42 -57t41.5 -35.5l19 -11h-748l-711 1309v-701q0 -41 2.5 -129t3.5 -185v-64q0 -63 -1 -121q-2 -88 -11 -129q-25 -137 -91 -258t-204 -214q-61 -41 -126.5 -68.5t-133.5 -36.5q-32 -4 -64 -4q-36 0 -73 5q-70 10 -137 45 q-66 33 -122 92.5t-81 124.5q-14 37 -14 73q0 29 9 58q19 66 105 115q36 20 71 20q11 0 21 -2q44 -8 65.5 -24.5t25.5 -18.5l-12 -13q-11 -13 -11 -15q-30 -43 -30 -86v-13q5 -49 36 -88t81 -60q39 -17 81 -17q12 0 25 2q55 6 108 45t90 122q4 8 13 29q16 43 25 110.5 t13.5 147.5t6.5 166q1 57 1 112v54q-1 80 -3 148.5t-2 113.5v6v-2z" />
<glyph unicode="O" horiz-adv-x="2371" d="M2443 922l-74 -51q-28 -19 -46.5 -42.5t-31 -57.5t-26.5 -91q-49 -199 -144.5 -338t-229.5 -227t-303 -129t-365 -41q-186 0 -354.5 40t-304.5 127t-233.5 223t-140.5 329q-14 59 -27 95t-32.5 61.5t-50.5 46.5l-80 55q45 31 78 61.5t55.5 64t38.5 74.5t31 95 q45 180 147.5 307t240.5 206.5t302 116.5t336 37q145 0 288.5 -26.5t269.5 -86t229.5 -155.5t170.5 -236q18 -35 28.5 -66.5t19 -61t15.5 -60.5t19 -66q23 -66 70 -115.5t104 -88.5zM1528 1028q23 49 30 99q3 23 3 50q0 30 -5 62q-16 123 -65 206t-115.5 125t-142.5 43h-4 q-74 0 -140 -41q-69 -42 -122.5 -129t-73.5 -218q-8 -50 -8 -87q0 -11 1 -21q3 -42 21.5 -73.5t52 -59.5t84.5 -62l-75 -51q-33 -22 -54.5 -48t-28.5 -61q-4 -19 -4 -44q0 -21 3 -46q10 -78 28.5 -158t55.5 -144.5t98 -105.5t160 -41q94 0 154.5 38t98.5 98.5t57 137 t30 154.5q7 44 7 70q0 20 -4 36q-5 19 -20.5 37.5t-42.5 45.5q-25 25 -52 44l-56 38q14 10 32.5 19t37 21.5t34 27.5t25.5 38z" />
<glyph unicode="P" horiz-adv-x="1916" d="M840 901l-2 -463q0 -123 25.5 -205.5t62.5 -129t75.5 -70t63.5 -28.5t27 -5h-1092q106 25 156.5 97.5t67.5 166.5q14 76 14 159v39q-4 103 -5 187q0 66 -7 104t-25.5 63.5t-52.5 47.5l-87 58q35 23 67 48t54 60q31 43 43.5 90t13.5 95v25q0 36 -2 74q-3 50 -4 99 q0 57 -9 127t-35.5 131.5t-71.5 105.5t-115 50h1188q94 0 201.5 -9.5t207 -41t179.5 -92t120 -162.5q14 -39 21.5 -64.5t11.5 -43t9.5 -31t18.5 -28t35.5 -32.5t61.5 -45q-45 -29 -84 -58.5t-61 -78.5q-39 -82 -96.5 -156t-130 -130t-158.5 -91t-178 -41q-23 -2 -51 -2 q-35 0 -77 3q-77 5 -154 23.5t-140 55.5t-86 98zM1235 1274q-23 -20 -39 -36.5t-26.5 -35t-14.5 -42t0 -54.5q10 -106 65 -155q48 -43 103 -42h14q63 6 117.5 66.5t65.5 173.5q1 15 1 29q0 55 -19 105q-24 62 -68 118q-49 61 -121 94t-154 46t-166 15.5t-153 2.5 q0 -94 1 -187v-61q0 -61 -1 -123q37 51 83 87t98 49q28 7 57 7q24 0 49 -5q55 -11 108 -52z" />
<glyph unicode="Q" horiz-adv-x="2455" d="M1255 -63q-28 -1 -55 -1q-165 0 -319 31q-180 37 -326.5 124t-252 228.5t-152.5 346.5l-16.5 68.5t-17 49t-29.5 42t-52 48.5q-18 16 -38 28l-40 24q47 33 80 62.5t56.5 64t40 76.5t30.5 98q45 180 148.5 308t243.5 210t307 119t341 37q147 0 292.5 -27t272.5 -87.5 t232.5 -157.5t173.5 -238q33 -66 46 -128.5t36 -127.5q23 -68 71 -118t107 -91q-47 -31 -75.5 -51.5t-47 -43t-31 -57.5t-26.5 -92q-66 -268 -215.5 -437t-415.5 -251q55 -76 134 -151.5t169 -145.5t184.5 -131.5t178.5 -106.5q213 35 488.5 73t581.5 70.5t625.5 55.5 t621.5 27q50 1 100 0q247 0 470 -17q268 -20 471 -71q74 -18 166 -50t182.5 -73t170 -93.5t131 -114t80.5 -138.5q20 -52 21 -107q0 -26 -5 -53q-18 -111 -108.5 -196t-220.5 -146.5t-285.5 -104.5t-307 -69.5t-285 -42t-214.5 -21.5q-154 -13 -308 -12q-147 0 -294 11 q-300 24 -593.5 86.5t-579.5 159.5t-558 222q-205 94 -398 201l-387 223q-8 4 -16 9l-16 10l-87 -14l-227 -35q-139 -22 -315 -45l-352 -45q-176 -22 -338 -37t-273 -17q-22 -1 -43 -1l-43 1q-43 2 -86 6q-84 6 -186 27.5t-201.5 58.5t-187.5 90.5t-141.5 123t-62.5 157.5 q-1 13 -1 25q0 78 47 169q37 70 100 99q58 27 120 26h9q67 -2 128 -29.5t95 -69.5q30 -37 30 -82q0 -5 -1 -11q-4 -51 -65 -98q-29 51 -61.5 65t-60.5 3t-46 -45q-20 -36 -19 -82q0 -42 20 -89q22 -49 75 -94q82 -70 219 -100.5t304 -35.5l89 -2q126 0 260 11 q182 14 355.5 36.5t322 46t246.5 36.5q63 8 126.5 14t127.5 14q-78 68 -140.5 129.5t-115.5 126t-99.5 138.5t-89.5 168zM1432 315q57 70 80.5 160t33.5 176q6 41 8 64.5t-3 42t-20 37t-46 49.5q-23 25 -52 44l-59 38l63.5 46t53.5 56l-12 -20q39 47 53 113q8 39 8 76 q0 26 -4 52q-10 72 -32.5 139.5t-61.5 119t-97.5 82t-140.5 30.5q-88 0 -147.5 -33t-98 -86t-60 -122.5t-34.5 -145.5q-9 -53 -8 -91v-15q2 -42 19.5 -74.5t52.5 -61t90 -65.5l-56 -37q-28 -18 -51 -41q-29 -29 -43 -45.5t-18 -31.5q-2 -9 -2 -19q0 -8 1 -18q3 -22 7 -60 q8 -72 23.5 -148.5t48.5 -141.5t88 -111t141 -54q-10 45 -25.5 122t-39 153.5t-57.5 138t-81 78.5l-28 10q36 8 69 8q55 0 103 -21q76 -34 137 -97.5t110 -144.5zM2410 -604l394 -195q201 -96 406.5 -180t415.5 -152.5t423 -113.5q129 -27 279.5 -48.5t312.5 -31.5 q147 -9 297 -9h30q166 1 325 18.5t305.5 52t266.5 92.5q18 8 48 24.5l60 34.5t54.5 38.5t36.5 37.5q49 73 49 137q0 69 -42 129q-40 57 -105.5 103t-140 81t-148.5 60.5t-127 38.5q-250 61 -507 79q-210 15 -420 16q-47 0 -93 -1q-532 -8 -1063 -71.5t-1057 -139.5z" />
<glyph unicode="R" horiz-adv-x="2045" d="M2712 -322q2 98 49 167t118.5 107t154.5 43q13 1 26 1q69 0 133 -24q76 -28 132 -91t73 -162q5 -35 5 -68q0 -97 -44 -181q-59 -115 -163 -201t-233 -139.5t-243 -63.5q-41 -4 -83 -4l-200 25q-141 35 -276.5 105.5t-259 170.5t-232 221t-196 255t-148.5 270 q-57 129 -86 255l-57 261q-2 10 -10.5 25.5t-14.5 25.5q-41 68 -93 99.5t-112 42.5q-50 10 -104 10q-10 0 -20 -1q-65 -2 -132 -2q0 -125 -4 -253q-1 -26 -1 -51q0 -102 14 -199q6 -45 15 -86t25.5 -78t44 -67t68.5 -54q6 -4 27.5 -13.5t38 -15.5t18.5 -8h-1094l38 16 q38 16 84 62.5t84 128.5t38 213v198q0 74 -2 115t-18.5 67.5t-51 52.5t-100.5 69q53 37 87 66.5t52.5 63t25.5 76.5t7 105q0 59 1 121v24q0 49 -3 97q-6 133 -44 204.5t-81 104.5t-78 38l-34 5h1255q74 0 157 -7.5t162.5 -27.5t149.5 -59t117 -103q35 -47 48 -78.5 t26.5 -59.5t40 -57.5t89.5 -72.5q-49 -33 -86.5 -61.5t-70.5 -79.5q-37 -59 -94.5 -102.5t-124 -74t-137 -52t-136.5 -36.5q89 -17 180 -17q29 0 58 2q121 7 229 65q-7 -22 -7 -71v-12q1 -58 6 -125t11.5 -128.5t10.5 -91.5q6 -59 14 -118t25 -114q31 -115 63.5 -209 t80.5 -186t117.5 -190.5t174.5 -219.5q96 -111 197.5 -170t192.5 -78q47 -9 90 -9q40 0 77 8q76 17 123 61.5t60 109.5q4 18 4 37q0 49 -25 105q-4 6 -17.5 22.5t-39 30.5t-66.5 23q-18 4 -39 3q-26 0 -57 -6zM692 1073q74 0 156 -3h23q69 0 127 15q69 18 114 67.5t45 154.5 q0 113 -41 166t-107 71q-57 16 -127 16h-23q-83 -3 -167 -4v-483z" />
<glyph unicode="S" horiz-adv-x="1986" d="M1311 1612q-41 14 -98 21q-36 5 -74 5q-22 0 -44 -2q-62 -4 -123 -18t-108 -43t-74 -72q-23 -35 -23 -82q0 -11 1 -22q4 -47 42 -86t95.5 -69t128 -48t137.5 -25q34 -3 66 -3t61 3q59 6 97 27q23 12 43 25.5t43 25.5q2 -6 6 -14l6 -12q33 -74 83 -122t106 -89l115 -85 q58 -44 105.5 -107.5t80 -157t38.5 -234.5q0 -14 1 -27q0 -104 -28 -198q-32 -106 -94.5 -195.5t-150.5 -159t-195 -114.5q-92 -39 -206.5 -61.5t-239.5 -28.5q-47 -2 -94 -3q-79 0 -161 7q-130 10 -250 39.5t-225.5 78t-180.5 115.5q-53 45 -95.5 102.5t-69 122 t-32.5 133.5q-1 16 -1 31q0 53 15 107q27 94 89.5 149.5t139.5 74.5q43 11 87 11q35 0 71 -7q82 -15 147.5 -59t103.5 -117q31 -60 31 -135q0 -16 -1 -34q-53 14 -95 14q-30 0 -55 -7q-59 -17 -83 -58q-15 -25 -16 -57q0 -20 6 -41q15 -57 77 -111q63 -55 150.5 -84 t179.5 -32h24q80 0 158 18q90 20 162 63q66 39 123 96.5t86 131.5q26 61 25 115q0 11 -1 21q-6 62 -38.5 112.5t-85 89t-115 67.5t-128 46.5t-122.5 27.5q-35 5 -69 5q-37 0 -72 -6q-68 -11 -134 -46l-24 94q-8 31 -39 56.5t-72 54t-87 65.5t-85 87t-64.5 119.5t-25.5 166.5 q0 154 62.5 266.5t164 187t232.5 110.5t270 36q121 0 235.5 -23.5t233.5 -32.5q25 -2 48 -1q33 0 60 4q44 6 93 47q-17 -50 -18 -84q0 -34 40 -70q59 -51 80 -120q9 -29 9 -58q0 -42 -17 -86q-29 -76 -81 -112t-111 -41q-11 -1 -22 -1q-49 0 -96 20q-58 24 -98 67.5 t-54 104.5q-4 18 -4 37q1 44 22 93z" />
<glyph unicode="T" horiz-adv-x="1216" d="M569 2052l63 -41q40 -27 84 -52.5t86 -46t66 -24.5v-497q0 -86 -3 -150q-1 -12 0 -23q0 -50 11 -93q13 -52 50 -100t116 -101q-16 -8 -44.5 -27.5t-56.5 -48.5t-49.5 -69t-21.5 -89v-266q0 -115 31 -192.5t75 -124t90 -70t75.5 -30.5t32.5 -7h-1192q12 4 58 23.5t97 62.5 t92 118t41 189q0 88 5 163q2 22 2 43q0 51 -9 96q-12 65 -51 121t-125 108q90 59 134 123.5t44 175.5v348l-2 516l-338 44q-180 24 -370.5 41t-384.5 26q-92 4 -182 3q-101 0 -201 -5q-188 -9 -362.5 -42.5t-321.5 -97.5q-8 -4 -31 -17.5t-23 -23.5q47 -70 51 -135v-13 q0 -58 -25 -106q-28 -53 -79 -89t-110 -44q-16 -2 -32 -2q-44 0 -88 16q-60 23 -106 89q-44 63 -43 133q0 35 11 73q12 45 34.5 75t48 59.5t49 62.5t35.5 84q6 23 7.5 48.5t3.5 49.5q53 -29 101 -45q32 -11 69 -11q19 0 39 3q82 10 166.5 35.5t166.5 42.5q176 35 353.5 58.5 t357.5 35.5q233 16 461 16q93 0 186 -3q319 -9 637 -36.5t634 -70.5l640 -88q158 -23 348.5 -47.5t403.5 -46t439 -40t456 -27.5q206 -8 410 -8h45q226 1 436 18.5t397.5 52t339.5 92.5q16 6 30.5 13t28.5 11l-27 -24q-13 -12 -30 -23q-55 -37 -127 -65.5t-148.5 -51 t-153.5 -39t-143 -28.5q-426 -82 -857 -113q-380 -27 -760 -27l-102 1q-431 4 -862 36.5t-859 79.5z" />
<glyph unicode="U" horiz-adv-x="2353" d="M1927 2011q-14 -10 -28.5 -49t-27.5 -95.5t-24.5 -121t-19.5 -123.5t-12.5 -106.5t-4.5 -67.5q0 -66 6.5 -130.5t10.5 -129.5q2 -41 19.5 -76t43 -65.5t56 -57t61.5 -49.5q-68 -39 -104.5 -72.5t-53 -67.5t-18.5 -69q-1 -23 -1 -49v-26.5v-28.5q0 -29 -1 -60 q-2 -47 -17 -106q-35 -133 -102.5 -225.5t-160.5 -149.5t-207.5 -85t-243.5 -34q-36 -1 -72 -1q-63 0 -128 4q-101 7 -196.5 30t-180.5 63.5t-147.5 105t-99 155t-36.5 208.5q0 30 0.5 77.5t0.5 66.5q0 52 -14 95q-14 46 -52 86t-116 83q41 29 78 62.5t64 80.5 q20 39 32.5 109t12.5 151q0 82 -14.5 167t-43 156t-74.5 116t-112 47h1075q-68 -12 -115 -56t-74.5 -102.5t-39.5 -125t-12 -126.5v-796q0 -41 2 -89.5t13 -93.5t32.5 -85t58.5 -66q92 -61 183 -63h4q89 0 161 43q74 44 122 126t52 185q4 100 4 199q0 50 -1 101 q-1 65 -1 129q0 86 2 173q2 121 3 277.5t15.5 323.5t47.5 330.5t99.5 299t173 227.5t266.5 117q27 5 54 4l64 -6q59 -12 113 -39q88 -43 138 -107.5t70 -137.5q12 -46 12 -93q0 -27 -4 -56q-11 -76 -45 -142t-89 -119.5t-126 -80.5q-59 -22 -128 -22q-13 0 -27 1 q-84 5 -176 52z" />
<glyph unicode="V" horiz-adv-x="1925" d="M1862 1552q-6 -29 -18.5 -68.5t-22.5 -76.5l-19 -65q-8 -28 -8 -29q-20 -76 -44 -125t-28 -89q-1 -6 0 -11q0 -34 22 -68q26 -39 103 -92q-20 -16 -39.5 -23.5t-39 -16.5t-43 -23.5t-50.5 -45.5q-23 -27 -52.5 -84t-60 -132t-57 -156.5t-42.5 -157.5q-16 -81 -16 -142 q0 -56 19 -84q20 -29 43 -41t54 -22h-938q2 2 20.5 10t40 24.5t23.5 35.5q1 11 1 22q0 30 -8 69q-10 54 -30.5 117.5t-46 130t-52 128t-51 112.5l-39.5 84q-23 45 -45 71.5t-47.5 45t-57.5 35t-73 43.5l44 31q22 15 40 34q31 31 41 52.5t9 42t-11 44t-23 60.5l-30 98 q-18 59 -43 127t-54.5 136.5t-66.5 126t-78 98.5t-88 49h1085q-82 -8 -130 -56.5t-69 -115.5q-20 -62 -20 -130v-14q2 -76 21 -139l135 -438l135 -438l160 495l32 101l41 134l45 148l43 143l34 117l22 72l37 129q18 68 21 135q0 11 1 21q0 57 -14 111q-16 65 -66 120 q-47 53 -97 65q-17 4 -33 3q-31 0 -58 -14q-41 -22 -64 -71q-19 -40 -19 -92q0 -14 1 -28l4 -41q-115 8 -191.5 72.5t-112.5 153.5q-28 69 -28 143q0 21 3 42q10 95 71 166q57 66 136 106t166 54q53 9 107 9q35 0 69 -4q89 -9 167 -42q33 -14 69 -35.5t69.5 -47t63.5 -55.5 t48 -60q39 -66 56.5 -160t19.5 -196v-36q0 -82 -7 -162q-9 -97 -24 -171q-14 -70 -32.5 -135.5t-34.5 -133.5z" />
<glyph unicode="W" horiz-adv-x="2666" d="M2294 0h-740l-180 743l-184 -743h-852l45 45q23 23 41 45q39 51 42 133q1 14 0 28q0 69 -12 143q-15 89 -41 173t-40 142l-19 59q-8 27 -20 48.5t-31.5 39.5t-52.5 35q-25 12 -50.5 18t-49.5 21q53 37 83.5 63.5t42.5 57.5q9 23 10 51q0 9 -1 19q-4 40 -23 104 q-47 160 -120 307l-142 295l846 2q-41 -37 -65.5 -89t-36.5 -111q-9 -46 -8 -92v-26q3 -59 16 -110l124 -449l125 -448l213 864q13 52 14 111q0 15 -1 30q-4 76 -31 143.5t-78 116t-129 58.5h885q-72 -37 -113 -80t-58 -93q-15 -43 -15 -94q0 -9 1 -18q3 -61 21 -135 l205 -836l56 181l71 225l74 240l68 222l53 173l28 92q18 61 35.5 130t21.5 136q1 14 1 27q0 53 -13 104q-16 63 -65 119q-59 66 -112 72q-8 1 -16 1q-42 0 -73 -28q-37 -33 -56 -93q-13 -40 -13 -82q0 -22 3 -46q-102 6 -181 66.5t-119 146.5q-34 73 -34 155q0 15 2 29 q7 98 74 178q55 66 135 106t167 54q53 9 107 9q35 0 70 -4q89 -9 166 -42q68 -29 139.5 -82t110.5 -116q59 -98 75 -227q9 -71 9 -144q0 -59 -6 -120q-12 -136 -41 -268t-59 -235l-66 -228q-27 -91 -33 -158q-2 -17 -1 -32q0 -48 14 -89q18 -54 71 -117q-47 -12 -89 -37 t-83 -72q-20 -20 -46.5 -74.5t-54.5 -126t-53.5 -152.5t-42 -153.5t-21.5 -129.5q-1 -15 -1 -27q0 -35 11 -54q16 -29 38.5 -58.5t57.5 -41.5z" />
<glyph unicode="X" horiz-adv-x="2414" d="M2046 2365q-18 96 -59 179q-47 66 -109.5 116t-140.5 82q-117 49 -234 49q-54 0 -107 -10q-171 -33 -302 -162q-55 -74 -68 -174q-3 -23 -3 -46q0 -134 93 -245q39 -47 87 -75.5t106 -32.5l41 -2l-2 39q0 11 -1 21q0 84 29 126q33 47 84 54q14 2 28 1q50 0 86 -24 q46 -31 73.5 -82t39.5 -112q10 -51 9 -92v-15q-4 -88 -32 -179t-70 -175t-91 -158t-94 -127l-80 -92l-139 190q-2 4 -8 11q-57 88 -69 152q-5 28 -5 53q0 31 8 57q14 45 45 70.5t60 37.5l59 27h-47h-1075l18 -8q18 -8 46 -23.5t58.5 -38t57.5 -53.5l498 -698 q-12 -12 -28 -25l-36 -29l-31 -22l25 -17l63 -48q25 -19 58 -62l-512 -594q-61 -72 -126 -113t-118 -62.5t-89 -27.5t-42 -6h1090h16l-51 16q-35 12 -76 36t-64 65q-18 33 -18 79q0 10 1 21q5 59 60 139l236 277l162 -223l30 -45q12 -18 17 -33q27 -57 33 -99q2 -16 2 -31 q0 -22 -5 -41q-9 -32 -32 -57.5t-55 -52.5q-18 -16 -46 -27.5t-47.5 -17.5t-21.5 -6h1206l-28 12q-28 12 -70.5 40t-94 74t-100.5 114l-103 144l-120 164l-113 154l-84 116q-31 42 -32 46q14 12 29.5 23.5t37.5 25.5l25 17l-33 22q-45 31 -67.5 59.5t-45.5 65.5l91 113 q113 141 181 284.5t103 274.5t45 245q8 87 8 156q0 21 -1 40q-3 83 -12 131l-9 49l1 -1q1 -2 1 -4z" />
<glyph unicode="Y" horiz-adv-x="2224" d="M1712 922q-106 -29 -192 -82q-57 -35 -96.5 -77t-70 -89t-58 -98.5t-60.5 -106.5q-104 -174 -224 -337t-261 -308l-203 -203q-102 -98 -219 -184l766 -116q379 -58 766 -93q190 -18 417.5 -34.5t470.5 -24.5q217 -7 439 -8h56q251 1 490.5 18.5t458.5 54.5t400 98 q10 4 30.5 11.5t42 17.5t39 20.5t21.5 20.5q-76 117 -76 227q0 109 51 196t140.5 144.5t189.5 67.5q19 2 38 2q81 0 161 -35q98 -43 170 -156q29 -47 47 -100t21 -106q1 -11 1 -22q0 -42 -10 -84q-12 -52 -45 -97q-66 -92 -145.5 -155.5t-164.5 -106.5t-169 -72l-154 -51 q-215 -70 -433 -102.5t-441 -49.5q-292 -20 -584 -20q-182 0 -363 8q-471 20 -938 79.5t-929.5 151t-923.5 199.5q-119 -104 -263.5 -204.5t-298.5 -192.5l-311 -176l-296 -160q-442 -236 -885 -405t-896.5 -262t-924.5 -106q-70 -2 -141 -2q-404 0 -828 64q-127 18 -274 53 t-298 88.5t-296 125t-269 163.5t-218.5 205t-141.5 248q-14 39 -23 86t-13 95q-2 24 -1.5 48t1.5 47q3 47 16 88q2 10 12 30t22.5 40.5t25 38.5l18.5 27q70 98 178 181t232 150.5t254 118.5t243 86q203 61 454.5 94t537.5 45q171 7 351 8q120 0 243 -3q308 -8 622.5 -29 t627 -52.5t603 -68.5t551.5 -77l475 -74l649 -109l334 291q168 143 315 307l46 56l76 98l87 115q45 60 81 113.5t57.5 91.5t17.5 48q-39 84 -85.5 127t-101.5 67.5t-119.5 39t-140.5 41.5l67.5 50t57.5 60l-27 42l-70 110l-100 152l-113 173l-115 171l-101 145h1050 q-88 -37 -126 -93q-40 -60 -40 -134q0 -63 25 -131q27 -73 64.5 -144.5t80.5 -135.5l76 -114l54 85l69 108l65 106q30 51 42 82q16 41 23 66.5t7 68.5q0 39 -16 77t-43 69.5t-61.5 55.5t-71.5 34h831l-8 -17q-4 -8 -10 -16l-463 -694q-16 -23 -17 -56.5t21 -54.5 q20 -20 43 -36zM-248 -590q-356 47 -755.5 111.5t-821.5 125t-852 106.5t-848 59q-114 3 -226 3q-299 0 -584 -24q-392 -33 -736 -131q-123 -35 -256 -94.5t-237 -132.5q-293 -207 -293 -409q0 -194 280 -400q244 -176 520.5 -284.5t573.5 -160t605 -52.5h17q300 0 596 36 q305 37 600 105.5t564 156.5q217 72 433 158t417 194q262 141 509 307z" />
<glyph unicode="Z" horiz-adv-x="2226" d="M-6 4l38 48l95 122l127 162l131 169l109 142l61 80q36 52 36 90q0 34 -26 78q-8 16 -20.5 28.5t-22.5 24.5q123 59 204 123t143.5 138.5t117.5 163.5l129 202q-62 4 -119 4q-109 0 -196 -15q-133 -24 -217 -65t-134.5 -86t-67.5 -74.5t-20 -31.5l105 520h1466l-456 -709 q-10 -16 -8.5 -39.5t11 -48t23 -47t25.5 -35.5q-88 -41 -165 -85t-132 -126l-272 -403l-273 -402l19 -8q57 -27 144 -45t184 -23q30 -2 61 -2q68 0 137 8q100 11 184 41.5t144.5 86t78.5 137.5q4 20 4 37q0 35 -16 59q-25 37 -69 58.5t-96 29.5t-95 8l10 50q20 100 92 166.5 t167 94.5q71 21 149 20q26 0 52 -2q105 -9 193.5 -58t145.5 -138.5t57 -218.5q0 -125 -47 -224t-126 -175t-182 -130t-216 -88t-227.5 -49.5t-214.5 -15.5q-281 0 -546 81t-480 270l-56 48q-18 15 -34.5 22.5t-40.5 13.5z" />
<glyph unicode="[" horiz-adv-x="817" d="M618 909q-23 -12 -42 -25.5t-37 -29.5q-31 -31 -45.5 -55.5t-17.5 -50t-1 -54t2 -67.5v-412h234v-215h-635v616q0 59 -2 100.5t-14.5 74t-42 60.5t-85.5 58q55 39 84 72t42.5 69.5t15.5 83t2 107.5v586h635v-209h-234v-369v-110q0 -45 12.5 -83t41 -72t87.5 -75z" />
<glyph unicode="\" horiz-adv-x="1351" d="M1286 -6l10 8q-47 35 -84 69l-71 68q-41 39 -95.5 105.5t-110.5 146.5t-106.5 168t-80.5 174q-10 43 -11.5 68.5t2.5 54.5l2 14l2 13q-25 10 -44 19t-40 26q-43 35 -63.5 64.5t-44.5 72.5q-8 16 -47 75.5t-96 137.5q-35 47 -68 86t-71 76t-84 72l-105 79q-55 39 -78 51 l-6 -8q104 -98 177 -176t133.5 -157.5t116.5 -174.5l128 -225l91 -171q44 -85 95 -167q207 -340 549 -569z" />
<glyph unicode="]" horiz-adv-x="817" d="M150 909q23 -12 42 -25.5t37 -29.5q31 -31 45.5 -55.5t17.5 -50t1 -54t-2 -67.5v-412h-234v-215h635v616q0 59 2 100.5t14.5 74t42 60.5t85.5 58q-55 39 -84 72t-42.5 69.5t-15.5 83t-2 107.5v586h-635v-209h234v-369v-110q0 -45 -12.5 -83t-42 -72t-86.5 -75z" />
<glyph unicode="^" horiz-adv-x="972" d="M487 1448q-4 -4 -8 -5t-8 -5l-57 -45l-60 -45l-66 -41q-38 -23 -80 -42.5t-84 -35t-77 -17.5q-6 -2 -14 -2h-13l25 19q45 33 85 65.5t76 67.5t65.5 76t56.5 92q12 27 28.5 57.5t22.5 50.5h215l24 -52q14 -30 29 -56q27 -51 56.5 -92t65.5 -76t76 -67.5t85 -65.5l24 -19 h-14q-6 0 -12 2q-35 2 -77 17.5t-84 35t-81 42t-65 41.5l-62 45l-57 45q-4 4 -7.5 5t-7.5 5z" />
<glyph unicode="_" />
<glyph unicode="`" />
<glyph unicode="a" horiz-adv-x="2226" d="M299 823q106 61 161.5 101.5t86.5 85.5t52.5 107.5t62.5 168.5q16 41 26 88q5 24 5 46.5t-5 43.5q-14 53 -47 87t-66.5 53.5t-60.5 26.5l-27 7h961l219 -641q6 -18 45 -47.5t82 -57.5t78 -47l35 -20q-2 -2 -19 -12l-41 -26q-25 -15 -39 -27q-30 -24 -29 -68q0 -46 12 -82 q11 -33 13 -37l61 -162q28 -75 62.5 -139.5t79.5 -119t111 -101.5q23 -16 48 -30.5t54 -20.5h-1157q12 6 55 25.5t87 58.5t73 96q17 35 17 79q0 28 -7 60q-4 14 -13 43t-21 60l-21 60q-10 30 -16 46h-25q-25 0 -61.5 -8t-79.5 -25.5t-82 -54.5l-17 14q-16 13 -47 30.5 t-75 30.5t-99 13q-6 -18 -20.5 -53t-27.5 -72.5t-22.5 -74.5t-9.5 -58q4 -102 58.5 -173.5t154.5 -96.5h-864q2 2 23.5 14.5t58.5 37t72 52.5q35 31 74.5 103t75.5 153.5t65 157.5l43 115q6 20 6 43q0 14 -2 29q-6 39 -31 63q-14 16 -39 30zM1137 723l-181 532l-172 -532 h353z" />
<glyph unicode="b" horiz-adv-x="1734" d="M754 965h92q129 0 188.5 53t59.5 172q0 117 -56.5 164t-185.5 47h-98v-436zM1708 1262l-41 -28q-20 -13 -37 -30q-20 -18 -27 -37l-18 -43q-18 -51 -52 -91t-76 -71.5t-91 -55t-98 -40.5q55 -12 111.5 -30.5t107.5 -46t94 -67.5t70 -93q10 -23 15 -46.5t15 -45.5 q16 -41 54.5 -72t72.5 -55l-81 -60q-40 -31 -64 -76q-16 -29 -27.5 -54t-33.5 -50q-53 -59 -132 -94t-168.5 -51.5t-178.5 -20.5t-162 -4h-961q2 2 17.5 8t38 18.5t36.5 22.5q39 29 63.5 68t38 82t17.5 89t4 93q0 94 4 156q1 16 1 31q0 42 -8 76q-11 46 -46 86t-115 93 q31 23 58.5 45.5t50.5 55.5q29 39 41 79.5t15 83.5q2 26 2 53q0 18 -1 36q-2 45 -2 92q0 53 -10 112.5t-36 112.5t-67 93t-102 52h987q63 0 141 -5t154 -21.5t142.5 -48t111.5 -86.5q33 -41 42 -64.5t19.5 -44t32 -44t78.5 -62.5zM754 229h106q147 0 213 60.5t66 206.5 q0 133 -70 193.5t-213 60.5h-102v-521z" />
<glyph unicode="c" horiz-adv-x="1787" d="M1788 573q2 -4 7 -19l11 -33q6 -17 10.5 -31.5t4.5 -16.5q-43 -135 -128 -231.5t-197 -157.5t-242 -89q-121 -26 -244 -26h-19q-121 2 -252 30t-247.5 98.5t-205.5 193.5t-122 317q-10 68 -58.5 124t-105.5 93q68 41 111 111t65 145q84 299 300 445.5t521 146.5 q117 0 232 -24l108 -25q53 -12 108 -20q48 -7 97 -8h12q55 1 111 16q2 0 12 4l23 9q12 5 24.5 11t18.5 13l37 -617l-19 33q-18 33 -45.5 78t-61.5 92t-63 76q-66 68 -169 103q-98 34 -200 34h-12q-109 -2 -205 -43t-149 -129q-12 -18 -21.5 -48t-17.5 -60.5t-13 -61.5 t-7 -53l-2 -26q0 -27 7 -49q9 -32 27.5 -58.5t46 -49t60.5 -45.5l-60 -41q-30 -20 -53 -49q-29 -37 -30 -102q0 -7 -1 -15q0 -59 15 -121q16 -71 47 -135.5t68 -99.5q74 -70 175 -89q54 -10 108 -10q49 0 98 8q104 17 198 67.5t156 121.5q37 43 69.5 100.5z" />
<glyph unicode="d" horiz-adv-x="2004" d="M53 823q35 25 67 51.5t54 65.5q25 43 33 83t8 89q2 55 2 111q0 55 -4 110q-4 45 -15.5 98.5t-36 98.5t-64.5 75.5t-97 32.5h891q125 0 256 -15t250 -59t217 -122t160 -201q27 -53 41 -107l28 -112q14 -61 63.5 -112.5t98.5 -86.5q-41 -27 -68.5 -47t-46 -42.5t-30 -53.5 t-21.5 -80q-39 -182 -129 -299t-216 -183.5t-280.5 -92t-322.5 -25.5h-883q66 27 106 52.5t61.5 61.5t29.5 86t10 124q1 44 1 87v43q-1 65 -1 130q0 49 -11 83.5t-31.5 61.5t-51.5 48zM918 823l-67 -46q-30 -22 -49.5 -46t-29.5 -58t-10 -85v-348h129q119 0 186.5 56t99 142 t39 188.5t7.5 194.5q0 90 -7.5 192.5t-39 188.5t-99 142.5t-186.5 56.5h-129v-328q0 -90 44 -146.5t112 -103.5z" />
<glyph unicode="e" horiz-adv-x="1822" d="M61 823q61 43 107.5 96.5t46.5 133.5q0 59 1 116v39q0 38 -1 76q-2 51 -16.5 106.5t-40 104.5t-65.5 87t-93 56h1683l21 -249q10 -125 14 -252q-33 74 -74.5 114.5t-93 65t-112 37t-127.5 28.5q-53 12 -109.5 16.5t-111.5 6.5q-69 3 -137 3h-33q-84 -1 -170 -1v-442h241 q43 0 79 26.5t65.5 65.5t50 82t33.5 78v-748q-10 41 -32 90t-54.5 92t-73.5 72t-90 29h-219v-521q137 0 254 -1h19q106 0 195 11q97 11 179 41.5t150.5 93t126 163t106.5 254.5q-8 -199 -23.5 -396.5t-27.5 -396.5h-1725l33 13q33 13 73 52t72.5 110t32.5 185v246 q0 45 -11 76t-31.5 55.5t-49.5 43.5z" />
<glyph unicode="f" horiz-adv-x="1652" d="M86 840l-4 -2q63 43 92 89t38 98q7 39 7 82q0 14 -1 30q-3 59 -3 131q0 55 -13.5 111.5t-40 107.5t-66.5 91t-95 60h1612l53 -503q-6 25 -22.5 50t-32.5 44q-49 57 -116 92t-139.5 53.5t-149.5 24.5t-148 6l-307 2v-451q94 0 163.5 5.5t124 31t97.5 77.5t84 147v-750 q-23 100 -67 155.5t-104.5 82t-136 31.5t-161.5 5v-368q0 -59 11 -118.5t37.5 -110t69.5 -89.5t107 -55h-975q47 25 85 62.5t65.5 84t44 97.5t20.5 102q3 37 3 74q0 19 -1 38q-2 56 -2 111q0 63 -11 111.5t-65 89.5q-18 16 -38 29l-38 24z" />
<glyph unicode="g" horiz-adv-x="1916" d="M883 821q-12 -2 -30.5 -16t-37 -33.5t-34 -39t-21.5 -32.5q-8 -18 -8 -47q4 -72 18 -149.5t47 -141t88.5 -104.5t145.5 -41q78 0 115.5 27.5t51.5 67.5q12 35 11 73v11q-2 44 -2 77q-1 33 -1 65.5t1 64.5v17q0 55 -12 101q-13 53 -51 92t-122 53h877q-55 -18 -92 -57 t-57.5 -89t-28.5 -107.5t-8 -108.5v-496q-59 55 -125 75q-57 17 -115 17q-9 0 -18 -1q-68 -3 -138.5 -23.5t-140.5 -43t-138.5 -41t-133.5 -20.5h-28q-147 0 -268 40q-132 44 -231.5 130t-164 212t-89.5 286q-6 39 -18 64.5t-29.5 45t-41.5 35.5l-54 37q45 31 87 72t58 94 q16 57 27.5 110.5t36.5 108.5q51 115 129 200t176 141.5t211 84t236 27.5q59 0 116.5 -6t112.5 -20.5t116.5 -36t123.5 -30.5q28 -4 54 -4q33 0 64 6q57 11 105 64l24 -643v-4q-59 170 -189 269.5t-298 140.5q-35 8 -74 15q-30 6 -58 6q-8 0 -16 -1q-82 -4 -137 -44 t-89 -100.5t-49 -133t-15 -144.5q0 -29 12 -54.5t31.5 -47t42 -39t45.5 -31.5z" />
<glyph unicode="h" horiz-adv-x="2023" d="M1970 1638q-41 -10 -83 -47t-64 -71q-45 -70 -53.5 -159t-8.5 -169q0 -31 -2 -62.5t0 -62.5t8.5 -61.5t22.5 -57.5q14 -23 27.5 -39t28 -30.5t31.5 -26.5l40 -29l-69.5 -47t-48 -43.5t-29 -56.5t-9.5 -82v-270q0 -109 32 -172.5t68.5 -97.5t67.5 -44l31 -10h-885l22 11 q22 11 47 47t47.5 102.5t22.5 175.5l3 403h-455v-407q0 -113 22.5 -179.5t48 -100.5t48.5 -43l22 -9h-903q55 25 95 70t67.5 102t41 117.5t13.5 116.5v186q0 47 -9 74.5t-38 62.5q-27 29 -54.5 50.5t-60.5 43.5q43 31 76 60.5t55 79.5q32 68 32 143q0 27 -0.5 81t-0.5 81 q0 51 -11 110.5t-37 113.5t-68 94t-101 52h924q-51 -18 -82 -50t-48.5 -70.5t-22.5 -83.5t-5 -91v-370h451q0 29 2 86t2 127t-6.5 143.5t-22.5 137t-46 110.5t-77 61h901z" />
<glyph unicode="i" horiz-adv-x="1028" d="M913 823l-55 -36q-27 -17 -49 -42q-20 -23 -30.5 -38t-15.5 -32.5t-5 -37.5v-45v-219q0 -119 33.5 -191.5t74.5 -112.5t75 -55l34 -14h-975l33 12q33 12 72.5 46t72.5 94.5t35 156.5l1 29q1 29 1 70q0 43 1 88t1 77q0 55 -8 90t-27.5 61t-49.5 48.5t-73 50.5l38 28 q17 13 31.5 26.5t28 30t27.5 38.5q20 35 28.5 75t9.5 82v21q0 31 -2 63q-3 42 -3 81q0 127 -33.5 200.5t-74.5 111.5t-75 48l-34 10h979q-66 -23 -109 -59.5t-67.5 -84.5t-34.5 -105.5t-10 -120.5q0 -86 -2 -149q0 -10 -1 -19q0 -51 10 -92q11 -49 43.5 -92.5t104.5 -92.5z " />
<glyph unicode="j" horiz-adv-x="1501" d="M700 981q4 20 7.5 57t4.5 82l2 92q1 47 1 86q0 55 -10.5 110.5t-37 101.5t-70.5 80t-114 48h957q-16 -6 -49 -32.5t-67 -65.5t-59.5 -86t-25.5 -94l-2 -316q0 -49 11.5 -77.5t33 -49t51 -38t68.5 -43.5l-49 -33q-25 -16 -45 -39q-47 -47 -56.5 -96.5t-9.5 -112.5v-528 q-10 18 -21.5 43.5t-27.5 46t-37.5 29t-48.5 -10.5q-70 -45 -126 -74.5t-112.5 -47t-120 -24.5t-147.5 -7q-104 0 -210.5 26.5t-193.5 81.5t-141.5 141t-54.5 207q0 102 41 175t102.5 114t131.5 50q21 3 42 3q48 0 91 -15q61 -22 102 -74t41 -136q0 -96 -59 -158 q-56 -58 -146 -57h-12q36 57 36 108q0 58 -31 94q-28 32 -68 33q-2 0 -3 1q-38 0 -69 -41q-20 -25 -24.5 -58t1.5 -63q8 -45 41 -79t76 -57.5t91 -35t89 -11.5q88 0 135 31t68.5 81t26 115.5t4.5 135.5q0 53 -21.5 95t-49.5 73t-53 49l-34 25q16 12 39.5 26.5t47 32.5 t41 39.5t23.5 46.5z" />
<glyph unicode="k" horiz-adv-x="2162" d="M14 1638h897q-68 -25 -101.5 -89t-47.5 -154t-14 -201t2 -227l553 579q18 18 6.5 34.5t-33 28t-46 18.5t-36.5 11h743q-37 -4 -67 -12q-78 -23 -141.5 -45t-121 -52t-109.5 -71t-109 -102l-283 -303q49 -25 104 -33q26 -4 52 -4q29 0 58 5q54 9 102 35.5t85 71.5 q2 -57 14.5 -114.5t28.5 -110.5q41 -135 97.5 -277.5t134.5 -267.5t178 -221t227 -137h-665q-53 0 -102.5 19.5t-84.5 60.5q-63 72 -119.5 176t-102.5 220t-81 231.5t-53 210.5l-231 -248q0 -41 -3 -104q-1 -42 -1 -86v-46q1 -70 9.5 -142.5t29 -133t57.5 -103.5t94 -55 h-934q68 10 110 49t65.5 92.5t32.5 114.5t9 117v221q0 27 -1 47.5t-6 36.5t-15.5 31.5t-30.5 35.5q-23 23 -47 39l-51 35q63 41 107 91.5t44 129.5q0 39 2 97l2 79q0 20 -1 41q-1 63 -10 128t-31.5 118t-62 90t-102.5 45z" />
<glyph unicode="l" horiz-adv-x="1624" d="M926 825q-47 -31 -78 -54t-50.5 -52t-27.5 -67t-8 -95v-319q96 0 195.5 2t193.5 22.5t178 65.5t150 129q63 84 91 178l58 194q-6 -43 -14 -114l-18 -156l-19 -172q-10 -88 -17 -166l-13 -136q-5 -58 -5 -85h-1542q14 8 27.5 13t27.5 14q49 27 81 68.5t49.5 91t24.5 102.5 t7 106q0 82 4 141q1 16 1 30q0 41 -8 75q-11 47 -46 90t-111 94q70 49 104 90t46 86q11 42 11 92q0 19 -0.5 64.5t-0.5 75.5q0 45 -5 95t-18.5 98.5t-38 90.5t-61.5 70q-14 10 -37.5 22.5t-39 19.5t-17.5 9h977q-66 -23 -107 -51t-64.5 -68t-32.5 -92.5t-11 -119.5 q-2 -82 -5 -148q-1 -13 -1 -26q0 -51 10 -96q12 -56 48 -107.5t112 -104.5z" />
<glyph unicode="m" horiz-adv-x="2480" d="M49 825l61 45q30 23 50 56q23 35 31 68.5t8 76.5v90v129v119v51q0 63 -23.5 99t-51.5 53.5t-50 21.5l-23 4h854l279 -976l299 976h938l-32 -11q-32 -11 -68.5 -36.5t-68.5 -65.5t-32 -98v-358q0 -33 3 -53.5t9 -35.5t14 -26l15 -22q23 -35 52.5 -59.5t62.5 -47.5 q-27 -16 -51.5 -33.5t-47.5 -39.5q-16 -18 -33.5 -49t-23.5 -70v-285q0 -41 8 -90t32 -98t63.5 -91t101.5 -69h-881q18 12 36.5 22.5t35.5 24.5q29 27 50.5 67t34.5 86t19 93t6 84v993l-419 -1370h-383l-398 1366q0 -256 2 -511q1 -85 1 -170q0 -170 -3 -341 q0 -72 13.5 -142.5t58.5 -130t115 -71.5h-713q10 6 21.5 9t21.5 9q45 27 74.5 65t47 83t25 94t7.5 98v248q0 49 -8.5 81t-27 53.5t-46 40.5z" />
<glyph unicode="n" horiz-adv-x="1959" d="M180 930v-2q18 23 26.5 68.5t10.5 98.5q1 35 1 67v33q-1 48 -1 73q0 53 -8 116.5t-30.5 119t-65.5 93t-113 41.5h811l602 -1103v733q0 55 -9 118.5t-35 118t-70 91t-113 42.5h721q-2 -2 -9.5 -3t-9.5 -1q-35 -8 -63 -30q-35 -27 -56.5 -64t-34 -80t-16.5 -88t-4 -84v-205 q0 -2 -1 -23.5t6 -58t28 -69.5q23 -35 51.5 -58.5t63.5 -48.5l-59 -39q-28 -18 -47 -40.5t-30.5 -51t-11.5 -71.5v-459q0 -57 34 -92t75 -72h-670l-637 1174v-795q0 -72 14.5 -149.5t61.5 -135.5q14 -16 35.5 -33.5t43 -31t37.5 -21.5l15 -8h-705q2 0 12.5 4t24 8t25.5 9.5 t18 9.5q37 23 59.5 55.5t35 70.5t16.5 78.5t6 79.5q3 64 3 128v32q-1 80 -1 160q0 37 -12 64.5t-33.5 49t-48.5 39.5l-55 37q35 23 62 46.5t50 58.5z" />
<glyph unicode="o" horiz-adv-x="2150" d="M2146 827l-65.5 -44t-41 -37.5t-26.5 -50t-22 -79.5q-43 -174 -126 -296.5t-201 -200.5t-267.5 -114t-321.5 -36q-164 0 -312.5 36t-268 112t-204.5 195.5t-124 289.5q-12 51 -23.5 83t-29 53.5t-44 41t-69.5 47.5q41 27 69.5 53.5t48 56.5t34 66.5t26.5 83.5 q39 158 129 268.5t212 181.5t266.5 103.5t293.5 32.5q129 0 255 -23.5t236.5 -75.5t202 -136t150.5 -207q31 -63 40 -113.5t30 -107.5q20 -59 61 -103.5t92 -79.5zM1341 922q20 43 28 87q3 21 3 43q0 26 -4 56q-14 106 -57 179t-101.5 111t-126.5 38q-66 0 -126 -37 t-107 -113t-66 -192q-8 -43 -7 -75v-19q3 -38 19.5 -65.5t46 -52t75.5 -55.5l-66 -44q-29 -19 -47.5 -41.5t-25.5 -53.5q-4 -17 -4 -38q0 -19 3 -42q8 -70 23.5 -140.5t48.5 -126.5t87 -92t140 -36q82 0 136.5 34t88 87t50 120.5t24.5 135.5q4 33 6 54q1 6 1 12q0 14 -4 26 q-5 16 -17 32.5t-37 41.5q-23 23 -47 39l-49 32q27 20 61.5 37t50.5 58z" />
<glyph unicode="p" horiz-adv-x="1718" d="M1843 1145q-53 -35 -76.5 -57.5t-37 -45t-25.5 -50t-43 -70.5q-43 -61 -109.5 -99.5t-147.5 -60t-170 -30.5t-176 -10h-57q-56 0 -109 1q-79 2 -140 2v-332q0 -78 17 -157.5t71 -139.5q25 -27 58.5 -50t54.5 -34l26 -12h-979q94 57 137 117.5t59 131.5q14 62 13 133v19 q-1 41 -1 86t1 95v13q0 64 -18 100q-19 40 -39 59q-23 20 -46.5 37.5t-50.5 33.5q31 23 58.5 46.5t50.5 52.5q25 29 35 68.5t12 85.5q1 23 1 46.5t-1 47.5q-2 48 -2 96q0 49 -9.5 110.5t-32 116.5t-62 96t-103.5 47h1065q84 0 180 -8t185.5 -36.5t162 -83t107.5 -146.5 q18 -49 23.5 -75.5t13.5 -46t29.5 -40t74.5 -57.5zM754 928q76 0 150.5 1t134 21.5t96 70.5t36.5 148q0 96 -38.5 144.5t-99.5 66.5q-57 17 -126 18h-8q-74 -1 -145 -1v-469z" />
<glyph unicode="q" horiz-adv-x="2127" d="M748 475q76 10 148 23q62 11 122 10h19q69 -2 132.5 -28.5t120.5 -92.5q14 39 23.5 78t15.5 80q9 58 9 94q0 43 -17 72q-16 27 -50 50l-87 60q23 16 43 32.5t39 35.5q43 47 58 88q9 25 9 58q0 22 -4 48q-10 66 -28.5 128.5t-52.5 110.5t-87 78t-129 30t-127 -28t-85 -73 t-53 -105.5t-32 -123.5l-10 -62q-4 -25 -2 -45t14.5 -41.5t36.5 -52.5q20 -23 45 -42l49 -36q-63 -43 -97 -73.5t-44 -66.5q-6 -21 -6 -46q0 -18 3 -38q8 -48 24 -122zM1530 53q66 -68 146.5 -134t171.5 -119.5t187.5 -87.5t194.5 -36h19q65 0 117 13q60 14 112.5 44.5 t97.5 75t90 101.5l-20 -49q-70 -166 -179.5 -275.5t-242.5 -152.5q-81 -26 -168 -26q-56 0 -113 10q-148 28 -296 137q-72 51 -136.5 125.5t-113.5 143t-79 117.5l-30 48q-164 -29 -316 -30q-38 0 -76 2q-187 9 -341 71.5t-265.5 184.5t-164.5 308q-10 37 -15.5 67 t-12.5 56.5t-21.5 52t-44.5 54.5q-23 20 -47.5 35.5t-46.5 31.5q53 39 82.5 68t48 59.5t30.5 68.5l31 97q49 154 140 261.5t210 174t260.5 97t292.5 30.5q147 0 287.5 -29.5t259.5 -96t209 -172t139 -255.5q20 -61 30.5 -102t26 -71.5t44 -60.5t86.5 -69l-41 -26 q-55 -37 -78 -61.5t-31 -50.5t-10 -60.5t-19 -92.5q-45 -162 -149 -283.5t-256 -193.5zM1169 233q-31 63 -89 104.5t-121.5 67t-121 39t-87.5 19.5q33 -135 100.5 -199.5t179.5 -64.5q80 -1 139 34z" />
<glyph unicode="r" horiz-adv-x="1964" d="M61 825q47 33 77 59.5t47.5 57.5t23.5 69t6 95v108q0 55 -2 109q-2 106 -35 169.5t-72.5 95.5t-72.5 41l-33 9h1126q63 0 138 -6t147 -24.5t135.5 -53t104.5 -92.5q33 -45 44 -72.5t22.5 -51t35 -49t82.5 -66.5q-45 -29 -79 -55.5t-62 -71.5q-35 -53 -85 -92t-110.5 -67 t-124 -47.5t-121.5 -31.5q74 -16 151 -16q31 0 62 3q109 9 205 58q-9 -30 -9 -72q0 -24 3 -52q8 -77 39 -169t81 -189t118.5 -182t153.5 -148.5t184 -88.5l-682 -2q-94 0 -150.5 31.5t-90.5 83t-51.5 118t-30.5 136t-31.5 136t-52.5 119t-92.5 84t-154.5 31.5h-147 q0 -111 -2 -225q0 -19 -1 -38q0 -95 9 -187q8 -82 31.5 -133.5t54.5 -82t64.5 -47t62.5 -26.5h-973q53 25 93 65.5t65.5 92t39 108t13.5 109.5v194v56q0 27 -7 52t-24.5 51t-54.5 52q-16 12 -34 24zM723 963q68 0 141 -2q9 0 17 -1q64 0 118 14q61 15 101.5 60t40.5 137 q0 100 -37 148.5t-96 65.5q-50 15 -112 15h-23q-75 -3 -150 -3v-434z" />
<glyph unicode="s" horiz-adv-x="1585" d="M891 -39q121 0 242.5 27.5t219 92t159 168t59.5 255.5q-10 82 -30.5 141.5t-47.5 101t-58.5 71.5t-64.5 52l-34 21l-33 20q-55 35 -96.5 73t-67.5 103q-4 10 -6.5 14.5t-6.5 14.5l-39 -24q-16 -10 -31.5 -18.5t-33.5 -13.5t-45 -9q-43 -7 -89 -7h-23q-58 2 -115.5 13.5 t-109.5 35t-93 58.5q-39 35 -51 82q-5 18 -5 33q0 26 13 45q31 47 81 78.5t111 48.5q58 15 122 15h8q69 -1 135 -19q92 -25 146 -49.5t95 -57.5q20 -16 41 -37l43 -43l50 -50l69 -67l-59 512q-86 -27 -159 -26h-10q-77 2 -153 12l-158 26q-69 12 -152 11h-26 q-125 0 -242.5 -33t-210 -99.5t-147.5 -167.5t-55 -241q0 -129 48 -206.5t109 -126.5q29 -25 59 -46l54 -38q53 -39 64 -74q4 -20 9 -42l11 -46q23 10 45.5 22.5t44.5 18.5q33 8 90 8q59 0 126 -10.5t134.5 -29.5t118.5 -47t80 -64q20 -25 20 -53q0 -12 -4 -25 q-20 -78 -81.5 -111t-138.5 -37q-15 -1 -31 -1q-62 0 -125 13q-80 16 -138 37q-129 47 -252 127q-78 53 -148.5 119t-129.5 156l82 -703q61 37 126.5 53.5t132.5 17.5h11l122 -10q67 -11 132 -30q72 -18 142.5 -26.5t144.5 -8.5z" />
<glyph unicode="t" horiz-adv-x="1742" d="M1286 831q-14 -6 -39.5 -24.5t-51.5 -40t-45.5 -45t-19.5 -41.5v-297q0 -63 17.5 -125.5t52.5 -116t86 -91.5t119 -50h-1075q59 16 107 51t83 82t53.5 104.5t18.5 116.5v287q0 35 -9.5 59.5t-28.5 46t-50 41t-74 43.5q78 55 119 112.5t41 158.5v278q-31 3 -63 3 q-63 0 -129 -11q-97 -16 -180 -60t-142.5 -117t-75.5 -177v620h1720v-614q-23 115 -90 186.5t-149 107.5t-164 49t-133 13h-54v-256q0 -59 5.5 -99t23 -71.5t48 -59.5t79.5 -63z" />
<glyph unicode="u" horiz-adv-x="1878" d="M963 1638q-61 -12 -102.5 -50t-67 -90t-37 -112.5t-11.5 -113.5v-715q0 -72 8.5 -133.5t35 -107.5t78 -71.5t134.5 -25.5q43 0 85 5t81 22l142 59q2 242 2 483v484q0 59 -8.5 117.5t-31 107.5t-63.5 87t-106 54h739q-33 -6 -68.5 -20t-65.5 -36.5t-49.5 -52.5t-19.5 -69 v-358q0 -92 45.5 -151.5t114.5 -106.5q-49 -29 -80.5 -53.5t-49 -53t-24 -67.5t-6.5 -97v-534q-4 16 -10 31q-29 53 -60 64q-15 5 -31 6l-33 -7q-32 -12 -66.5 -36.5t-69.5 -41.5q-111 -51 -228.5 -68.5t-236.5 -17.5q-125 0 -248 23.5t-221 82t-159.5 157t-61.5 245.5 q0 33 2 67q1 17 1 33.5t-1 33.5q-2 34 -9 66t-28 60q-23 35 -57.5 60.5t-69.5 46.5q68 47 101.5 89t47 88t13.5 101v133q0 43 -5 91.5t-17.5 94.5t-36 86t-60.5 68q-14 10 -38 21l-39 16q-15 6 -17 6h963z" />
<glyph unicode="v" horiz-adv-x="1925" d="M973 1638q-74 -8 -117 -51t-62 -103q-18 -57 -19 -121q0 -71 20 -132l120 -393l123 -394l265 824q24 73 24 136q0 60 -22 110q-45 103 -187 124h793l-32 -16q-28 -14 -73 -58t-75 -120l-19 -39l-43 -94l-49 -116q-25 -60 -39 -101q-8 -23 -18.5 -46.5t-15.5 -48t-1 -49 t23 -45.5q12 -14 33.5 -31.5t37 -28.5t17.5 -14l-24 -8q-24 -8 -54.5 -25.5t-61 -44t-42.5 -63.5q-14 -41 -37 -95l-47 -116q-25 -61 -46.5 -124.5t-33.5 -120.5q-13 -61 -14 -108q0 -44 18 -69q16 -27 36.5 -37t49.5 -20h-869q4 0 27 7t47.5 24.5t20.5 42.5 q-10 70 -33 153.5t-49.5 165.5t-56 152.5t-56.5 111.5q-25 39 -45 62.5t-41.5 41t-48.5 32t-64 38.5l40 29q19 14 36 31q27 27 37 46t8 37.5t-11 40t-19 54.5l-45 141q-29 90 -70 181.5t-93.5 163t-115.5 83.5h973z" />
<glyph unicode="w" horiz-adv-x="2621" d="M217 834q66 45 94 115q16 40 16 82q0 33 -10 67q-29 96 -72.5 195.5t-88.5 189.5q-23 45 -63 94t-93 59h842q-4 2 -14.5 -10t-14.5 -16q-55 -74 -68 -170q-4 -34 -4 -67q0 -60 15 -118l111 -402l114 -400l190 772q12 47 12 102v24q-3 69 -28 130t-71 104t-115 53h794 q-63 -33 -100 -70.5t-52 -83.5q-14 -41 -14 -88v-13q2 -54 19 -121l196 -809l191 749q10 43 16 110q2 27 3 53q0 40 -6 79q-9 66 -36.5 120t-83.5 74h701q-43 -16 -77 -50t-48 -57.5t-16 -27.5l-19 -43l-45 -106q-27 -63 -53.5 -137t-44.5 -134q-10 -33 -18.5 -54 t-9.5 -39.5t9.5 -38t34.5 -46.5q18 -23 42 -39l46 -32q-55 -31 -92 -55.5t-63.5 -53.5t-48 -66.5t-42.5 -99.5q-27 -74 -43 -145q-15 -64 -14 -127v-16q2 -71 25.5 -138t77.5 -133h-721l-162 666l-166 -666h-764q72 96 100 221q17 76 18 150q0 48 -7 95q-18 120 -87 219.5 t-192 148.5z" />
<glyph unicode="x" horiz-adv-x="2189" d="M750 901l-435 600q-47 63 -94 94t-72.5 37t-29.5 6h1028l-53 -24q-25 -12 -52.5 -36t-41.5 -62q-8 -22 -7 -50q0 -21 4 -47q10 -57 62 -137q6 -6 8 -10l125 -170l30 34l64 74l66 75q31 34 30 36q51 76 55 131v12q0 47 -22 78q-25 35 -61.5 57.5t-64 30.5t-29.5 8h874 q-53 -10 -96 -32.5t-74 -45t-47 -39.5l-16 -18l-431 -538q16 -33 38 -57.5t63 -53.5l28 -20l-22 -17l-33 -22l-28 -21l31 -44l80 -110l106 -146l106 -148q82 -115 146.5 -179.5t107.5 -96.5t66 -39l22 -7v-4h-113h-919h-33l29 12q16 6 48 24.5t57.5 52.5t32.5 84q1 9 1 19 q0 45 -27 105l-15 30q-9 17 -25 40l-148 200q-2 -2 -21 -25l-52 -61l-61 -72l-51 -63q-22 -27 -24 -29q-51 -72 -56 -123q-1 -10 -1 -20q0 -40 17 -70q22 -37 57.5 -58t68.5 -32l45 -14h-14h-977q6 0 38 6t80 24.5t105.5 55.5t112.5 100l88 102l119 138l121 140l94 109 q35 40 37 44q-14 18 -26.5 31.5t-25.5 23.5l-25 21q-13 10 -32 22l-22 17l28 20q18 12 33 24.5t25 22.5z" />
<glyph unicode="y" horiz-adv-x="2017" d="M1171 1638h859q-31 -6 -66 -25.5t-66.5 -47t-59.5 -57t-44 -56.5l-176 -257q-90 -128 -168 -261q23 -35 53.5 -58.5t63.5 -46.5q-35 -10 -77 -26.5t-82 -39t-75 -49t-55 -57.5v-313q0 -84 44 -157.5t105 -129.5q16 -16 39 -28.5t37 -28.5h-1018l58 33q51 31 88 63.5 t60.5 73.5t33.5 91t10 114v282q-18 35 -51 61.5t-71 48t-77.5 37t-76.5 25.5l60 45q30 23 52 56q-2 2 -31 47l-74 112l-94 143l-94 142l-73 109l-29 43q-12 18 -33.5 35.5t-46 33t-50.5 26.5t-46 17h1061q-66 -14 -104.5 -56t-54.5 -97q-10 -36 -10 -75q0 -21 3 -42 q8 -61 39 -113l88 -144l90 -144q20 37 49 81l59 89q30 45 55 89t42 81q28 65 28 119q0 18 -4 36q-12 70 -86 129q-16 12 -40 26.5t-44 20.5z" />
<glyph unicode="z" horiz-adv-x="1816" d="M289 1161l94 477h1343l-417 -649q-18 -29 -13.5 -56.5t18 -50t27.5 -35.5l15 -13q-82 -39 -154 -80t-123 -119l-260 -404q86 0 175 -3h28q75 0 147 14q6 0 28 4t50.5 10t57 13t47.5 14q76 31 144.5 90t125.5 134t99 158t67 160l-25 -268q-12 -133 -22 -268q-4 -35 -7 -84 t-5.5 -94l-4.5 -78l-2 -33h-1722l261 330q134 174 237 348q-2 31 -4 50.5t-9.5 35.5t-18.5 31.5t-32 38.5q117 55 189.5 112.5t129 124t106.5 148.5l120 188q-49 0 -114.5 -1t-136.5 -7t-143.5 -20.5t-133 -42t-104.5 -70t-58 -105.5z" />
<glyph unicode="{" horiz-adv-x="942" d="M733 903l-50 -31q-26 -16 -42 -36q-23 -25 -34 -65t-15 -84t-3 -87t3 -76q6 -127 15 -206.5t40 -139t90.5 -112t161.5 -123.5q-291 4 -468 152.5t-245 426.5q-12 49 -16 94.5t-12 87t-27.5 79.5t-60.5 73q-16 14 -34 25.5t-36 21.5q20 14 38.5 28.5t35.5 31.5 q53 57 67.5 120.5t28.5 135.5q57 303 236.5 478t492.5 197q-76 -63 -128 -112t-87 -95.5t-54.5 -93.5t-28.5 -105t-12 -133t-3 -173q0 -53 6 -92t22.5 -70t46 -58.5t72.5 -58.5z" />
<glyph unicode="|" horiz-adv-x="2048" d="M637 1929v-2031h231v2031h-231z" />
<glyph unicode="}" horiz-adv-x="790" d="M209 903l50 -31q26 -16 42 -36q23 -25 34 -65t15 -84t3 -87t-3 -76q-6 -127 -15 -206.5t-40 -139t-90.5 -112t-161.5 -123.5q291 4 468 152.5t245 426.5q12 49 16 94.5t12.5 87t27.5 79.5t60 73q16 14 34 25.5t36 21.5q-20 14 -38.5 28.5t-35.5 31.5q-53 57 -67.5 120.5 t-28.5 135.5q-57 303 -236.5 478t-492.5 197q113 -94 176.5 -160.5t93 -140t36.5 -168t7 -243.5q0 -53 -6 -92t-23.5 -70t-46 -58.5t-71.5 -58.5z" />
<glyph unicode="~" horiz-adv-x="714" d="M-178 1321q-4 45 10 78q66 145 186.5 196.5t274.5 16.5q51 -10 100 -32l96 -42q41 -16 76 -27.5t67 -12.5t64.5 12.5t67.5 45.5l65 60l-8 -66q-14 -121 -65 -181t-123 -76.5t-160 2t-176 59.5q-68 31 -127 43t-115.5 8t-113 -25.5t-119.5 -58.5z" />
<glyph unicode="&#xa0;" />
<glyph unicode="&#xa1;" />
<glyph unicode="&#xa2;" horiz-adv-x="516" d="M254 928q12 -78 25.5 -153t23.5 -152q-2 0 -6 4q-29 23 -46.5 58.5t-24.5 76.5t-1 82t27 71zM485 756q0 14 5.5 26.5t12.5 16.5t15 0t12 -23q6 -31 -10 -61.5t-43.5 -54t-61.5 -38t-61 -14.5l-33 191q-17 94 -32 192q18 12 50 17.5t52 -2.5q-12 -29 1.5 -52.5t37 -33 t48 -1t36.5 38.5q8 25 3 39.5t-14 24.5t-15.5 21.5t-0.5 31.5q-14 -12 -26 -14t-29 0q-41 4 -77 11t-76 3q-6 57 -11.5 132t-4.5 151t9.5 147.5t26.5 126.5q4 18 12 27q39 -23 71 -11.5t47 37t10 58.5t-38 53q-41 25 -82 2q-29 -16 -48 -57t-29 -70q-18 -61 -26.5 -139 t-7.5 -161t7 -163t16 -141q-66 -16 -111.5 -64.5t-64.5 -113.5q-4 -14 -8 -25.5t-12 -22t-17 -17.5l-18 -15q12 -8 21.5 -16.5t17.5 -22.5q8 -49 33.5 -91t63.5 -73t84 -48t95 -19q8 -59 13.5 -133t5.5 -150t-8.5 -147.5t-26.5 -126.5q-4 -8 -6 -15.5t-8 -11.5 q-39 23 -70 11.5t-46 -37t-11 -58.5t37 -53q18 -10 40.5 -11.5t40.5 9.5q29 14 48.5 53t33 85t19.5 91t8 74q8 106 3 210.5t-21 209.5q98 10 155.5 62t75.5 111.5t-1 108.5t-75 53q-29 2 -53.5 -13t-34.5 -44q0 -53 51 -61z" />
<glyph unicode="&#xa3;" />
<glyph unicode="&#xa4;" />
<glyph unicode="&#xa5;" />
<glyph unicode="&#xa6;" />
<glyph unicode="&#xa7;" />
<glyph unicode="&#xa8;" />
<glyph unicode="&#xa9;" horiz-adv-x="399" d="M1968 817q0 197 -74.5 371t-203.5 304t-303.5 205t-370.5 75q-197 0 -371 -75t-304 -205t-205 -304t-75 -371t75 -371t205 -303t304 -203.5t371 -74.5t371 74.5t303 203.5t203.5 303t74.5 371zM1868 821q0 -176 -66.5 -329.5t-180.5 -268t-268.5 -181.5t-328.5 -67 q-176 0 -330.5 63.5t-270.5 176.5t-183.5 263.5t-67.5 326.5q0 174 67.5 330.5t183.5 274.5t270.5 186.5t330.5 68.5q174 0 328.5 -66.5t268.5 -181t180.5 -269.5t66.5 -329v2zM1569 690q-16 53 -51 83t-79 38t-91.5 -2t-82 -37t-55 -66.5t-10.5 -91.5q43 16 75 11.5t49 -25 t16 -49.5t-25 -57q-31 -41 -80 -61.5t-102.5 -21.5t-102.5 17t-82 59q-16 18 -30.5 56.5t-21.5 79.5t-6 77.5t17 57.5q14 18 33 32l37 25q-18 12 -34.5 26.5t-31.5 32.5q-23 29 -21.5 52.5t5.5 56.5q6 39 14.5 76t24.5 66.5t43 51t74 31.5q57 14 112 4q4 0 9.5 -2t9.5 -4 q-25 -59 1.5 -104t74 -63.5t98.5 -3t74 76.5q16 43 4.5 82t-43.5 68q-23 20 -23 36q0 18 10 48q-29 -29 -75 -28t-106 11t-132 18.5t-149.5 -3t-159.5 -54.5t-162 -137q-39 -45 -54 -90l-30 -89q-14 -44 -36.5 -84t-76.5 -75q57 -39 69.5 -61.5t12.5 -24.5q20 -117 91 -214 t171 -159q76 -45 159 -66.5t167 -20.5t168 22.5t160 62.5q43 25 82 61t64.5 80t33.5 93t-6 102z" />
<glyph unicode="&#xaa;" />
<glyph unicode="&#xab;" />
<glyph unicode="&#xac;" />
<glyph unicode="&#xad;" horiz-adv-x="1421" d="M8 588q-6 57 15 102q88 195 250.5 263.5t367.5 23.5q68 -16 133 -43l131 -55q53 -23 100.5 -38.5t90.5 -16.5t86 16.5t90 60.5l88 80l-10 -88q-18 -160 -86 -241t-166.5 -104.5t-216 2t-236.5 79.5q-90 39 -169 57.5t-154.5 13t-151.5 -33t-162 -78.5z" />
<glyph unicode="&#xae;" d="M1968 817q0 197 -74.5 371t-203.5 304t-303.5 205t-370.5 75q-197 0 -371 -75t-304 -205t-205 -304t-75 -371t75 -371t205 -303t304 -203.5t371 -74.5t371 74.5t303 203.5t203.5 303t74.5 371zM1868 821q0 -176 -66.5 -329.5t-180.5 -268t-268.5 -181.5t-328.5 -67 q-176 0 -330.5 63.5t-270.5 176.5t-183.5 263.5t-67.5 326.5q0 174 67.5 330.5t183.5 274.5t270.5 186.5t330.5 68.5q174 0 328.5 -66.5t268.5 -181t180.5 -269.5t66.5 -329v2zM467 831q27 18 43 33t25.5 32t13.5 38.5t4 52.5t-1 60.5t-1 60.5q-2 78 -33 117t-56.5 49 t-29.5 10h629q37 0 78 -3t81 -14.5t74.5 -30.5t59.5 -50q18 -25 23 -40.5t11.5 -28.5t19.5 -27.5t46 -36.5q-25 -16 -43 -30.5t-35 -41.5q-18 -29 -47 -50.5t-62.5 -36.5t-68.5 -26.5t-68 -17.5q59 -12 120 -8t114 32q-12 -39 5 -113.5t59 -154.5t106.5 -146.5t146.5 -86.5 l-381 -2q-70 0 -103.5 29.5t-51 75.5t-25.5 100.5t-24.5 100.5t-51 76.5t-106.5 30.5h-84q0 -63 -1 -126.5t5 -125.5q4 -45 17.5 -73.5t31 -46t36 -26.5t34.5 -15h-541q59 27 88 88t29 121v108q0 33 -4 60.5t-45 58.5zM836 907q37 0 78.5 -1t75.5 7.5t56.5 33t22.5 77.5 q0 55 -20.5 82t-54 36t-74.5 8t-84 -1v-242z" />
<glyph unicode="&#xaf;" />
<glyph unicode="&#x2c9;" />
<glyph unicode="&#xb0;" />
<glyph unicode="&#xb1;" />
<glyph unicode="&#xb2;" />
<glyph unicode="&#xb3;" />
<glyph unicode="&#xb4;" />
<glyph unicode="&#xb5;" />
<glyph unicode="&#x3bc;" />
<glyph unicode="&#xb6;" />
<glyph unicode="&#xb7;" />
<glyph unicode="&#xb8;" />
<glyph unicode="&#xb9;" />
<glyph unicode="&#xba;" />
<glyph unicode="&#xbb;" />
<glyph unicode="&#xbc;" />
<glyph unicode="&#xbd;" />
<glyph unicode="&#xbe;" />
<glyph unicode="&#xbf;" />
<glyph unicode="&#xc0;" />
<glyph unicode="&#xc1;" />
<glyph unicode="&#xc2;" />
<glyph unicode="&#xc3;" />
<glyph unicode="&#xc4;" />
<glyph unicode="&#xc5;" />
<glyph unicode="&#xc6;" />
<glyph unicode="&#xc7;" />
<glyph unicode="&#xc8;" />
<glyph unicode="&#xc9;" />
<glyph unicode="&#xca;" />
<glyph unicode="&#xcb;" />
<glyph unicode="&#xcc;" />
<glyph unicode="&#xcd;" />
<glyph unicode="&#xce;" />
<glyph unicode="&#xcf;" />
<glyph unicode="&#xd0;" />
<glyph unicode="&#xd1;" />
<glyph unicode="&#xd2;" />
<glyph unicode="&#xd3;" />
<glyph unicode="&#xd4;" />
<glyph unicode="&#xd5;" />
<glyph unicode="&#xd6;" />
<glyph unicode="&#xd7;" />
<glyph unicode="&#xd8;" />
<glyph unicode="&#xd9;" />
<glyph unicode="&#xda;" />
<glyph unicode="&#xdb;" />
<glyph unicode="&#xdc;" />
<glyph unicode="&#xdd;" />
<glyph unicode="&#xde;" />
<glyph unicode="&#xdf;" />
<glyph unicode="&#xe0;" />
<glyph unicode="&#xe1;" />
<glyph unicode="&#xe2;" />
<glyph unicode="&#xe3;" />
<glyph unicode="&#xe4;" />
<glyph unicode="&#xe5;" />
<glyph unicode="&#xe6;" />
<glyph unicode="&#xe7;" />
<glyph unicode="&#xe8;" />
<glyph unicode="&#xe9;" />
<glyph unicode="&#xea;" />
<glyph unicode="&#xeb;" />
<glyph unicode="&#xec;" />
<glyph unicode="&#xed;" />
<glyph unicode="&#xee;" />
<glyph unicode="&#xef;" />
<glyph unicode="&#xf0;" />
<glyph unicode="&#xf1;" />
<glyph unicode="&#xf2;" />
<glyph unicode="&#xf3;" />
<glyph unicode="&#xf4;" />
<glyph unicode="&#xf5;" />
<glyph unicode="&#xf6;" />
<glyph unicode="&#xf7;" />
<glyph unicode="&#xf8;" />
<glyph unicode="&#xf9;" />
<glyph unicode="&#xfa;" />
<glyph unicode="&#xfb;" />
<glyph unicode="&#xfc;" />
<glyph unicode="&#xfd;" />
<glyph unicode="&#xfe;" />
<glyph unicode="&#xff;" />
<glyph unicode="&#x152;" />
<glyph unicode="&#x153;" />
<glyph unicode="&#x178;" />
<glyph unicode="&#x2c6;" />
<glyph unicode="&#x2dc;" />
<glyph unicode="&#x2000;" horiz-adv-x="1394" />
<glyph unicode="&#x2001;" horiz-adv-x="2791" />
<glyph unicode="&#x2002;" horiz-adv-x="1394" />
<glyph unicode="&#x2003;" horiz-adv-x="2791" />
<glyph unicode="&#x2004;" horiz-adv-x="929" />
<glyph unicode="&#x2005;" horiz-adv-x="696" />
<glyph unicode="&#x2006;" horiz-adv-x="464" />
<glyph unicode="&#x2007;" horiz-adv-x="464" />
<glyph unicode="&#x2008;" horiz-adv-x="348" />
<glyph unicode="&#x2009;" horiz-adv-x="557" />
<glyph unicode="&#x200a;" horiz-adv-x="153" />
<glyph unicode="&#x2010;" horiz-adv-x="1421" d="M8 588q-6 57 15 102q88 195 250.5 263.5t367.5 23.5q68 -16 133 -43l131 -55q53 -23 100.5 -38.5t90.5 -16.5t86 16.5t90 60.5l88 80l-10 -88q-18 -160 -86 -241t-166.5 -104.5t-216 2t-236.5 79.5q-90 39 -169 57.5t-154.5 13t-151.5 -33t-162 -78.5z" />
<glyph unicode="&#x2011;" horiz-adv-x="1421" d="M8 588q-6 57 15 102q88 195 250.5 263.5t367.5 23.5q68 -16 133 -43l131 -55q53 -23 100.5 -38.5t90.5 -16.5t86 16.5t90 60.5l88 80l-10 -88q-18 -160 -86 -241t-166.5 -104.5t-216 2t-236.5 79.5q-90 39 -169 57.5t-154.5 13t-151.5 -33t-162 -78.5z" />
<glyph unicode="&#x2012;" horiz-adv-x="1421" d="M8 588q-6 57 15 102q88 195 250.5 263.5t367.5 23.5q68 -16 133 -43l131 -55q53 -23 100.5 -38.5t90.5 -16.5t86 16.5t90 60.5l88 80l-10 -88q-18 -160 -86 -241t-166.5 -104.5t-216 2t-236.5 79.5q-90 39 -169 57.5t-154.5 13t-151.5 -33t-162 -78.5z" />
<glyph unicode="&#x2013;" />
<glyph unicode="&#x2014;" />
<glyph unicode="&#x2018;" />
<glyph unicode="&#x2019;" />
<glyph unicode="&#x201a;" />
<glyph unicode="&#x201c;" />
<glyph unicode="&#x201d;" />
<glyph unicode="&#x201e;" />
<glyph unicode="&#x2022;" />
<glyph unicode="&#x2026;" />
<glyph unicode="&#x202f;" horiz-adv-x="557" />
<glyph unicode="&#x2039;" />
<glyph unicode="&#x203a;" />
<glyph unicode="&#x205f;" horiz-adv-x="696" />
<glyph unicode="&#x2122;" />
<glyph unicode="&#xe000;" horiz-adv-x="1640" d="M0 1640h1640v-1640h-1640v1640z" />
<glyph unicode="&#xfb01;" horiz-adv-x="2680" d="M2566 823l-55 -36q-27 -17 -49 -42q-20 -23 -30.5 -38t-15.5 -32.5t-5 -37.5v-45v-219q0 -119 33.5 -191.5t74.5 -112.5t75 -55l34 -14h-975l33 12q33 12 72.5 46t72.5 94.5t35 156.5l1 29q1 29 1 70q0 43 1 88t1 77q0 55 -8 90t-27.5 61t-49.5 48.5t-73 50.5l38 28 q17 13 31.5 26.5t28 30t27.5 38.5q20 35 28.5 75t9.5 82v21q0 31 -2 63q-3 42 -3 81q0 127 -33.5 200.5t-74.5 111.5t-75 48l-34 10h979q-66 -23 -109 -59.5t-67.5 -84.5t-34.5 -105.5t-10 -120.5q0 -86 -2 -149q0 -10 -1 -19q0 -51 10 -92q11 -49 43.5 -92.5t104.5 -92.5z M86 840l-4 -2q63 43 92 89t38 98q7 39 7 82q0 14 -1 30q-3 59 -3 131q0 55 -13.5 111.5t-40 107.5t-66.5 91t-95 60h1612l53 -503q-6 25 -22.5 50t-32.5 44q-49 57 -116 92t-139.5 53.5t-149.5 24.5t-148 6l-307 2v-451q94 0 163.5 5.5t124 31t97.5 77.5t84 147v-750 q-23 100 -67 155.5t-104.5 82t-136 31.5t-161.5 5v-368q0 -59 11 -118.5t37.5 -110t69.5 -89.5t107 -55h-975q47 25 85 62.5t65.5 84t44 97.5t20.5 102q3 37 3 74q0 19 -1 38q-2 56 -2 111q0 63 -11 111.5t-65 89.5q-18 16 -38 29l-38 24z" />
<glyph unicode="&#xfb02;" horiz-adv-x="3276" d="M2579 825q-47 -31 -78 -54t-50.5 -52t-27.5 -67t-8 -95v-319q96 0 195.5 2t193.5 22.5t178 65.5t150 129q63 84 91 178l58 194q-6 -43 -14 -114l-18 -156l-19 -172q-10 -88 -17 -166l-13 -136q-5 -58 -5 -85h-1542q14 8 27.5 13t27.5 14q49 27 81 68.5t49.5 91 t24.5 102.5t7 106q0 82 4 141q1 16 1 30q0 41 -8 75q-11 47 -46 90t-111 94q70 49 104 90t46 86q11 42 11 92q0 19 -0.5 64.5t-0.5 75.5q0 45 -5 95t-18.5 98.5t-38 90.5t-61.5 70q-14 10 -37.5 22.5t-39 19.5t-17.5 9h977q-66 -23 -107 -51t-64.5 -68t-32.5 -92.5 t-11 -119.5q-2 -82 -5 -148q-1 -13 -1 -26q0 -51 10 -96q12 -56 48 -107.5t112 -104.5zM86 840l-4 -2q63 43 92 89t38 98q7 39 7 82q0 14 -1 30q-3 59 -3 131q0 55 -13.5 111.5t-40 107.5t-66.5 91t-95 60h1612l53 -503q-6 25 -22.5 50t-32.5 44q-49 57 -116 92t-139.5 53.5 t-149.5 24.5t-148 6l-307 2v-451q94 0 163.5 5.5t124 31t97.5 77.5t84 147v-750q-23 100 -67 155.5t-104.5 82t-136 31.5t-161.5 5v-368q0 -59 11 -118.5t37.5 -110t69.5 -89.5t107 -55h-975q47 25 85 62.5t65.5 84t44 97.5t20.5 102q3 37 3 74q0 19 -1 38q-2 56 -2 111 q0 63 -11 111.5t-65 89.5q-18 16 -38 29l-38 24z" />
<glyph unicode="&#xfb03;" horiz-adv-x="4333" d="M4218 823l-55 -36q-27 -17 -49 -42q-20 -23 -30.5 -38t-15.5 -32.5t-5 -37.5v-45v-219q0 -119 33.5 -191.5t74.5 -112.5t75 -55l34 -14h-975l33 12q33 12 72.5 46t72.5 94.5t35 156.5l1 29q1 29 1 70q0 43 1 88t1 77q0 55 -8 90t-27.5 61t-49.5 48.5t-73 50.5l38 28 q17 13 31.5 26.5t28 30t27.5 38.5q20 35 28.5 75t9.5 82v21q0 31 -2 63q-3 42 -3 81q0 127 -33.5 200.5t-74.5 111.5t-75 48l-34 10h979q-66 -23 -109 -59.5t-67.5 -84.5t-34.5 -105.5t-10 -120.5q0 -86 -2 -149q0 -10 -1 -19q0 -51 10 -92q11 -49 43.5 -92.5t104.5 -92.5z M1739 840l-4 -2q63 43 92 89t38 98q7 39 7 82q0 14 -1 30q-3 59 -3 131q0 55 -13.5 111.5t-40 107.5t-66.5 91t-95 60h1612l53 -503q-6 25 -22.5 50t-32.5 44q-49 57 -116 92t-139.5 53.5t-149.5 24.5t-148 6l-307 2v-451q94 0 163.5 5.5t124 31t97.5 77.5t84 147v-750 q-23 100 -67 155.5t-104.5 82t-136 31.5t-161.5 5v-368q0 -59 11 -118.5t37.5 -110t69.5 -89.5t107 -55h-975q47 25 85 62.5t65.5 84t44 97.5t20.5 102q3 37 3 74q0 19 -1 38q-2 56 -2 111q0 63 -11 111.5t-65 89.5q-18 16 -38 29l-38 24zM86 840l-4 -2q63 43 92 89t38 98 q7 39 7 82q0 14 -1 30q-3 59 -3 131q0 55 -13.5 111.5t-40 107.5t-66.5 91t-95 60h1612l53 -503q-6 25 -22.5 50t-32.5 44q-49 57 -116 92t-139.5 53.5t-149.5 24.5t-148 6l-307 2v-451q94 0 163.5 5.5t124 31t97.5 77.5t84 147v-750q-23 100 -67 155.5t-104.5 82t-136 31.5 t-161.5 5v-368q0 -59 11 -118.5t37.5 -110t69.5 -89.5t107 -55h-975q47 25 85 62.5t65.5 84t44 97.5t20.5 102q3 37 3 74q0 19 -1 38q-2 56 -2 111q0 63 -11 111.5t-65 89.5q-18 16 -38 29l-38 24z" />
<glyph unicode="&#xfb04;" horiz-adv-x="4929" d="M4231 825q-47 -31 -78 -54t-50.5 -52t-27.5 -67t-8 -95v-319q96 0 195.5 2t193.5 22.5t178 65.5t150 129q63 84 91 178l58 194q-6 -43 -14 -114l-18 -156l-19 -172q-10 -88 -17 -166l-13 -136q-5 -58 -5 -85h-1542q14 8 27.5 13t27.5 14q49 27 81 68.5t49.5 91 t24.5 102.5t7 106q0 82 4 141q1 16 1 30q0 41 -8 75q-11 47 -46 90t-111 94q70 49 104 90t46 86q11 42 11 92q0 19 -0.5 64.5t-0.5 75.5q0 45 -5 95t-18.5 98.5t-38 90.5t-61.5 70q-14 10 -37.5 22.5t-39 19.5t-17.5 9h977q-66 -23 -107 -51t-64.5 -68t-32.5 -92.5 t-11 -119.5q-2 -82 -5 -148q-1 -13 -1 -26q0 -51 10 -96q12 -56 48 -107.5t112 -104.5zM1739 840l-4 -2q63 43 92 89t38 98q7 39 7 82q0 14 -1 30q-3 59 -3 131q0 55 -13.5 111.5t-40 107.5t-66.5 91t-95 60h1612l53 -503q-6 25 -22.5 50t-32.5 44q-49 57 -116 92 t-139.5 53.5t-149.5 24.5t-148 6l-307 2v-451q94 0 163.5 5.5t124 31t97.5 77.5t84 147v-750q-23 100 -67 155.5t-104.5 82t-136 31.5t-161.5 5v-368q0 -59 11 -118.5t37.5 -110t69.5 -89.5t107 -55h-975q47 25 85 62.5t65.5 84t44 97.5t20.5 102q3 37 3 74q0 19 -1 38 q-2 56 -2 111q0 63 -11 111.5t-65 89.5q-18 16 -38 29l-38 24zM86 840l-4 -2q63 43 92 89t38 98q7 39 7 82q0 14 -1 30q-3 59 -3 131q0 55 -13.5 111.5t-40 107.5t-66.5 91t-95 60h1612l53 -503q-6 25 -22.5 50t-32.5 44q-49 57 -116 92t-139.5 53.5t-149.5 24.5t-148 6 l-307 2v-451q94 0 163.5 5.5t124 31t97.5 77.5t84 147v-750q-23 100 -67 155.5t-104.5 82t-136 31.5t-161.5 5v-368q0 -59 11 -118.5t37.5 -110t69.5 -89.5t107 -55h-975q47 25 85 62.5t65.5 84t44 97.5t20.5 102q3 37 3 74q0 19 -1 38q-2 56 -2 111q0 63 -11 111.5 t-65 89.5q-18 16 -38 29l-38 24z" />
</font>
</defs>
</svg>
